<svg xmlns="http://www.w3.org/2000/svg" width="1700" height="274" viewBox="0 0 1700 274">
<rect width="100%" height="100%" fill="#f8f8f6"/>
<rect x="18" y="6" width="1664" height="118" rx="6" fill="#ffffff" stroke="#dddddd"/>
<rect x="18" y="6" width="7" height="118" fill="#b2182b"/>
<text x="32.0" y="24.0" font-family="Arial, Helvetica, sans-serif" font-size="16" font-weight="700" text-anchor="start" fill="#222">Exp3_MAG_257_panelcluster_8359</text>
<text x="32.0" y="42.0" font-family="Arial, Helvetica, sans-serif" font-size="11" font-weight="700" text-anchor="start" fill="#b2182b">Exp3_MAG_257 | MAGs/Exp3_MAG_257_c_000000000032 | Multi-hit cluster (&gt;=2 independent panel gene hits)</text>
<text x="32.0" y="58.0" font-family="Arial, Helvetica, sans-serif" font-size="9" font-weight="400" text-anchor="start" fill="#444">Panel genes: alkJ_adh; chnE; nylB; pcaK</text>
<text x="32.0" y="70.0" font-family="Arial, Helvetica, sans-serif" font-size="9" font-weight="400" text-anchor="start" fill="#444">Panel categories: Alkanes; Plastics; Transportation</text>
<line x1="452" y1="97.0" x2="1664" y2="97.0" stroke="#d0d0d0"/>
<polygon points="560.6,86.0 470.0,86.0 452.0,97.0 470.0,108.0 560.6,108.0" fill="#cab2d6" stroke="#111" stroke-width="2.2"><title>MAKHOFPB_02101 | pcaK_3 | Transport/efflux | 4-hydroxybenzoate transporter PcaK | PANEL HIT: pcaK (Transportation / Transportation) | pident=30.303000 qcovs=87.000000</title></polygon>
<text x="506.3" y="121.0" font-family="Arial, Helvetica, sans-serif" font-size="9" font-weight="700" text-anchor="end" transform="rotate(-45 506.3 121.0)" fill="#111">pcaK_3 (pcaK)</text>
<polygon points="607.4,86.0 579.0,86.0 565.0,97.0 579.0,108.0 607.4,108.0" fill="#d9d9d9" stroke="#888" stroke-width="0.8"><title>MAKHOFPB_02102 | MAKHOFPB_02102 | Hypothetical/accessory | hypothetical protein</title></polygon>
<text x="586.2" y="121.0" font-family="Arial, Helvetica, sans-serif" font-size="9" font-weight="400" text-anchor="end" transform="rotate(-45 586.2 121.0)" fill="#555">MAKHOFPB_02102</text>
<polygon points="615.7,86.0 717.8,86.0 735.8,97.0 717.8,108.0 615.7,108.0" fill="#d73027" stroke="#888" stroke-width="0.8"><title>MAKHOFPB_02103 | lsdB_1 | Oxygenase/dioxygenase | Lignostilbene-alpha,beta-dioxygenase isozyme III</title></polygon>
<text x="675.8" y="121.0" font-family="Arial, Helvetica, sans-serif" font-size="9" font-weight="400" text-anchor="end" transform="rotate(-45 675.8 121.0)" fill="#555">lsdB_1</text>
<polygon points="739.6,86.0 818.5,86.0 836.5,97.0 818.5,108.0 739.6,108.0" fill="#d9d9d9" stroke="#111" stroke-width="2.2"><title>MAKHOFPB_02104 | MAKHOFPB_02104 | Hypothetical/accessory | hypothetical protein | PANEL HIT: nylB (Plastics / Nylon) | pident=33.893000 qcovs=74.000000</title></polygon>
<text x="788.0" y="121.0" font-family="Arial, Helvetica, sans-serif" font-size="9" font-weight="700" text-anchor="end" transform="rotate(-45 788.0 121.0)" fill="#111">MAKHOFPB_02104 (nylB)</text>
<polygon points="837.5,86.0 863.5,86.0 876.3,97.0 863.5,108.0 837.5,108.0" fill="#d9d9d9" stroke="#888" stroke-width="0.8"><title>MAKHOFPB_02105 | MAKHOFPB_02105 | Hypothetical/accessory | hypothetical protein</title></polygon>
<text x="856.9" y="121.0" font-family="Arial, Helvetica, sans-serif" font-size="9" font-weight="400" text-anchor="end" transform="rotate(-45 856.9 121.0)" fill="#555">MAKHOFPB_02105</text>
<polygon points="879.5,86.0 942.6,86.0 960.6,97.0 942.6,108.0 879.5,108.0" fill="#d9d9d9" stroke="#888" stroke-width="0.8"><title>MAKHOFPB_02106 | MAKHOFPB_02106 | Hypothetical/accessory | hypothetical protein</title></polygon>
<text x="920.1" y="121.0" font-family="Arial, Helvetica, sans-serif" font-size="9" font-weight="400" text-anchor="end" transform="rotate(-45 920.1 121.0)" fill="#555">MAKHOFPB_02106</text>
<polygon points="1039.4,86.0 982.7,86.0 964.7,97.0 982.7,108.0 1039.4,108.0" fill="#cccccc" stroke="#888" stroke-width="0.8"><title>MAKHOFPB_02107 | copD_2 | Accessory/other | Copper resistance protein D</title></polygon>
<text x="1002.1" y="121.0" font-family="Arial, Helvetica, sans-serif" font-size="9" font-weight="400" text-anchor="end" transform="rotate(-45 1002.1 121.0)" fill="#555">copD_2</text>
<polygon points="1074.4,86.0 1054.3,86.0 1044.4,97.0 1054.3,108.0 1074.4,108.0" fill="#cccccc" stroke="#888" stroke-width="0.8"><title>MAKHOFPB_02108 | pcoC | Accessory/other | Copper resistance protein C</title></polygon>
<text x="1059.4" y="121.0" font-family="Arial, Helvetica, sans-serif" font-size="9" font-weight="400" text-anchor="end" transform="rotate(-45 1059.4 121.0)" fill="#555">pcoC</text>
<polygon points="1176.0,86.0 1098.5,86.0 1080.5,97.0 1098.5,108.0 1176.0,108.0" fill="#cccccc" stroke="#888" stroke-width="0.8"><title>MAKHOFPB_02109 | MAKHOFPB_02109 | Accessory/other | putative protein</title></polygon>
<text x="1128.3" y="121.0" font-family="Arial, Helvetica, sans-serif" font-size="9" font-weight="400" text-anchor="end" transform="rotate(-45 1128.3 121.0)" fill="#555">MAKHOFPB_02109</text>
<polygon points="1316.5,86.0 1199.8,86.0 1181.8,97.0 1199.8,108.0 1316.5,108.0" fill="#33a02c" stroke="#111" stroke-width="2.2"><title>MAKHOFPB_02110 | alkJ_1 | Dehydrogenase/oxidoreductase | Alcohol dehydrogenase [acceptor] | PANEL HIT: alkJ_adh (Alkanes / Auxillary alkane pathway) | pident=41.360000 qcovs=95.000000</title></polygon>
<text x="1249.2" y="121.0" font-family="Arial, Helvetica, sans-serif" font-size="9" font-weight="700" text-anchor="end" transform="rotate(-45 1249.2 121.0)" fill="#111">alkJ_1 (alkJ_adh)</text>
<polygon points="1456.2,86.0 1343.0,86.0 1325.0,97.0 1343.0,108.0 1456.2,108.0" fill="#d9d9d9" stroke="#888" stroke-width="0.8"><title>MAKHOFPB_02111 | MAKHOFPB_02111 | Hypothetical/accessory | hypothetical protein</title></polygon>
<text x="1390.6" y="121.0" font-family="Arial, Helvetica, sans-serif" font-size="9" font-weight="400" text-anchor="end" transform="rotate(-45 1390.6 121.0)" fill="#555">MAKHOFPB_02111</text>
<polygon points="1541.7,86.0 1473.9,86.0 1455.9,97.0 1473.9,108.0 1541.7,108.0" fill="#d9d9d9" stroke="#888" stroke-width="0.8"><title>MAKHOFPB_02112 | MAKHOFPB_02112 | Hypothetical/accessory | hypothetical protein</title></polygon>
<text x="1498.8" y="121.0" font-family="Arial, Helvetica, sans-serif" font-size="9" font-weight="400" text-anchor="end" transform="rotate(-45 1498.8 121.0)" fill="#555">MAKHOFPB_02112</text>
<polygon points="1664.0,86.0 1565.8,86.0 1547.8,97.0 1565.8,108.0 1664.0,108.0" fill="#33a02c" stroke="#111" stroke-width="2.2"><title>MAKHOFPB_02113 | araE | Dehydrogenase/oxidoreductase | Alpha-ketoglutaric semialdehyde dehydrogenase 1 | PANEL HIT: chnE (Alkanes / Terminal/biterminal oxidation) | pident=34.722000 qcovs=94.000000</title></polygon>
<text x="1605.9" y="121.0" font-family="Arial, Helvetica, sans-serif" font-size="9" font-weight="700" text-anchor="end" transform="rotate(-45 1605.9 121.0)" fill="#111">araE (chnE)</text>
<text x="452.0" y="34.0" font-family="Arial, Helvetica, sans-serif" font-size="9" font-weight="400" text-anchor="start" fill="#666">1,169 bp</text>
<text x="1664.0" y="34.0" font-family="Arial, Helvetica, sans-serif" font-size="9" font-weight="400" text-anchor="end" fill="#666">16,097 bp</text>
<text x="24.0" y="166.0" font-family="Arial, Helvetica, sans-serif" font-size="10" font-weight="700" text-anchor="start" fill="#222">Legend (bold outline = reference-panel seed hit; thin outline = expanded genomic context)</text>
<rect x="24" y="176" width="16" height="12" fill="#d73027" stroke="#555" stroke-width="0.6"/>
<text x="46.0" y="186.0" font-family="Arial, Helvetica, sans-serif" font-size="9" font-weight="400" text-anchor="start" fill="#333">Oxygenase/dioxygenase</text>
<rect x="424" y="176" width="16" height="12" fill="#1f78b4" stroke="#555" stroke-width="0.6"/>
<text x="446.0" y="186.0" font-family="Arial, Helvetica, sans-serif" font-size="9" font-weight="400" text-anchor="start" fill="#333">CoA ligase/synthetase</text>
<rect x="824" y="176" width="16" height="12" fill="#6a3d9a" stroke="#555" stroke-width="0.6"/>
<text x="846.0" y="186.0" font-family="Arial, Helvetica, sans-serif" font-size="9" font-weight="400" text-anchor="start" fill="#333">Carboxylase</text>
<rect x="1224" y="176" width="16" height="12" fill="#33a02c" stroke="#555" stroke-width="0.6"/>
<text x="1246.0" y="186.0" font-family="Arial, Helvetica, sans-serif" font-size="9" font-weight="400" text-anchor="start" fill="#333">Dehydrogenase/oxidoreductase</text>
<rect x="24" y="198" width="16" height="12" fill="#ff7f00" stroke="#555" stroke-width="0.6"/>
<text x="46.0" y="208.0" font-family="Arial, Helvetica, sans-serif" font-size="9" font-weight="400" text-anchor="start" fill="#333">Hydratase/dehydratase/isomerase</text>
<rect x="424" y="198" width="16" height="12" fill="#b15928" stroke="#555" stroke-width="0.6"/>
<text x="446.0" y="208.0" font-family="Arial, Helvetica, sans-serif" font-size="9" font-weight="400" text-anchor="start" fill="#333">Hydrolase/decarboxylase/lyase</text>
<rect x="824" y="198" width="16" height="12" fill="#a6cee3" stroke="#555" stroke-width="0.6"/>
<text x="846.0" y="208.0" font-family="Arial, Helvetica, sans-serif" font-size="9" font-weight="400" text-anchor="start" fill="#333">Thiolase/transferase</text>
<rect x="1224" y="198" width="16" height="12" fill="#cab2d6" stroke="#555" stroke-width="0.6"/>
<text x="1246.0" y="208.0" font-family="Arial, Helvetica, sans-serif" font-size="9" font-weight="400" text-anchor="start" fill="#333">Transport/efflux</text>
<rect x="24" y="220" width="16" height="12" fill="#fdbf6f" stroke="#555" stroke-width="0.6"/>
<text x="46.0" y="230.0" font-family="Arial, Helvetica, sans-serif" font-size="9" font-weight="400" text-anchor="start" fill="#333">Regulator</text>
<rect x="424" y="220" width="16" height="12" fill="#fb9a99" stroke="#555" stroke-width="0.6"/>
<text x="446.0" y="230.0" font-family="Arial, Helvetica, sans-serif" font-size="9" font-weight="400" text-anchor="start" fill="#333">Electron transfer/redox</text>
<rect x="824" y="220" width="16" height="12" fill="#b2df8a" stroke="#555" stroke-width="0.6"/>
<text x="846.0" y="230.0" font-family="Arial, Helvetica, sans-serif" font-size="9" font-weight="400" text-anchor="start" fill="#333">Mobile/stress/accessory</text>
<rect x="1224" y="220" width="16" height="12" fill="#d9d9d9" stroke="#555" stroke-width="0.6"/>
<text x="1246.0" y="230.0" font-family="Arial, Helvetica, sans-serif" font-size="9" font-weight="400" text-anchor="start" fill="#333">Hypothetical/accessory</text>
<rect x="24" y="242" width="16" height="12" fill="#cccccc" stroke="#555" stroke-width="0.6"/>
<text x="46.0" y="252.0" font-family="Arial, Helvetica, sans-serif" font-size="9" font-weight="400" text-anchor="start" fill="#333">Accessory/other</text>
</svg>
