<svg xmlns="http://www.w3.org/2000/svg" width="1700" height="264" viewBox="0 0 1700 264">
<rect width="100%" height="100%" fill="#f8f8f6"/>
<rect x="18" y="6" width="1664" height="118" rx="6" fill="#ffffff" stroke="#dddddd"/>
<rect x="18" y="6" width="7" height="118" fill="#b2182b"/>
<text x="32.0" y="24.0" font-family="Arial, Helvetica, sans-serif" font-size="16" font-weight="700" text-anchor="start" fill="#222">Exp3_MAG_146_panelcluster_2988</text>
<text x="32.0" y="42.0" font-family="Arial, Helvetica, sans-serif" font-size="11" font-weight="700" text-anchor="start" fill="#b2182b">Exp3_MAG_146 | MAGs/Exp3_MAG_146_c_000000000045 | Multi-hit cluster (&gt;=2 independent panel gene hits)</text>
<text x="32.0" y="58.0" font-family="Arial, Helvetica, sans-serif" font-size="9" font-weight="400" text-anchor="start" fill="#444">Panel genes: est; hbd</text>
<text x="32.0" y="70.0" font-family="Arial, Helvetica, sans-serif" font-size="9" font-weight="400" text-anchor="start" fill="#444">Panel categories: Plastics</text>
<line x1="452" y1="97.0" x2="1664" y2="97.0" stroke="#d0d0d0"/>
<polygon points="452.0,86.0 590.9,86.0 608.9,97.0 590.9,108.0 452.0,108.0" fill="#33a02c" stroke="#111" stroke-width="2.2"><title>OHCJHHMP_02504 | bdhA_1 | Dehydrogenase/oxidoreductase | D-beta-hydroxybutyrate dehydrogenase | PANEL HIT: hbd (Plastics / P3HV/PHA/PHBV) | pident=60.385000 qcovs=98.000000</title></polygon>
<text x="530.4" y="121.0" font-family="Arial, Helvetica, sans-serif" font-size="9" font-weight="700" text-anchor="middle" fill="#111">bdhA_1 (hbd)</text>
<polygon points="614.8,86.0 830.4,86.0 848.4,97.0 830.4,108.0 614.8,108.0" fill="#d9d9d9" stroke="#888" stroke-width="0.8"><title>OHCJHHMP_02505 | OHCJHHMP_02505 | Hypothetical/accessory | hypothetical protein</title></polygon>
<text x="731.6" y="121.0" font-family="Arial, Helvetica, sans-serif" font-size="9" font-weight="400" text-anchor="middle" fill="#555">OHCJHHMP_02505</text>
<polygon points="855.0,86.0 884.6,86.0 899.1,97.0 884.6,108.0 855.0,108.0" fill="#d9d9d9" stroke="#888" stroke-width="0.8"><title>OHCJHHMP_02506 | OHCJHHMP_02506 | Hypothetical/accessory | hypothetical protein</title></polygon>
<text x="877.1" y="121.0" font-family="Arial, Helvetica, sans-serif" font-size="9" font-weight="400" text-anchor="middle" fill="#555">OHCJHHMP_02506</text>
<polygon points="922.8,86.0 974.1,86.0 992.1,97.0 974.1,108.0 922.8,108.0" fill="#fdbf6f" stroke="#888" stroke-width="0.8"><title>OHCJHHMP_02507 | hupR1 | Regulator | Hydrogenase transcriptional regulatory protein hupR1</title></polygon>
<text x="957.4" y="121.0" font-family="Arial, Helvetica, sans-serif" font-size="9" font-weight="400" text-anchor="middle" fill="#555">hupR1</text>
<polygon points="997.6,86.0 1024.1,86.0 1037.1,97.0 1024.1,108.0 997.6,108.0" fill="#d9d9d9" stroke="#888" stroke-width="0.8"><title>OHCJHHMP_02508 | OHCJHHMP_02508 | Hypothetical/accessory | hypothetical protein</title></polygon>
<text x="1017.4" y="121.0" font-family="Arial, Helvetica, sans-serif" font-size="9" font-weight="400" text-anchor="middle" fill="#555">OHCJHHMP_02508</text>
<polygon points="1093.8,86.0 1061.9,86.0 1046.3,97.0 1061.9,108.0 1093.8,108.0" fill="#d9d9d9" stroke="#888" stroke-width="0.8"><title>OHCJHHMP_02509 | OHCJHHMP_02509 | Hypothetical/accessory | hypothetical protein</title></polygon>
<text x="1070.0" y="121.0" font-family="Arial, Helvetica, sans-serif" font-size="9" font-weight="400" text-anchor="middle" fill="#555">OHCJHHMP_02509</text>
<polygon points="1271.8,86.0 1134.1,86.0 1116.1,97.0 1134.1,108.0 1271.8,108.0" fill="#d9d9d9" stroke="#888" stroke-width="0.8"><title>OHCJHHMP_02510 | OHCJHHMP_02510 | Hypothetical/accessory | hypothetical protein</title></polygon>
<text x="1194.0" y="121.0" font-family="Arial, Helvetica, sans-serif" font-size="9" font-weight="400" text-anchor="middle" fill="#555">OHCJHHMP_02510</text>
<polygon points="1291.3,86.0 1525.8,86.0 1543.8,97.0 1525.8,108.0 1291.3,108.0" fill="#33a02c" stroke="#888" stroke-width="0.8"><title>OHCJHHMP_02511 | ttuD_2 | Dehydrogenase/oxidoreductase | Putative hydroxypyruvate reductase</title></polygon>
<text x="1417.5" y="121.0" font-family="Arial, Helvetica, sans-serif" font-size="9" font-weight="400" text-anchor="middle" fill="#555">ttuD_2</text>
<polygon points="1664.0,86.0 1564.6,86.0 1546.6,97.0 1564.6,108.0 1664.0,108.0" fill="#cccccc" stroke="#111" stroke-width="2.2"><title>OHCJHHMP_02512 | OHCJHHMP_02512 | Accessory/other | Arylesterase | PANEL HIT: est (Plastics / PBAT) | pident=36.517000 qcovs=98.000000</title></polygon>
<text x="1605.3" y="121.0" font-family="Arial, Helvetica, sans-serif" font-size="9" font-weight="700" text-anchor="middle" fill="#111">OHCJHHMP_02512 (est)</text>
<text x="452.0" y="34.0" font-family="Arial, Helvetica, sans-serif" font-size="9" font-weight="400" text-anchor="start" fill="#666">43,050 bp</text>
<text x="1664.0" y="34.0" font-family="Arial, Helvetica, sans-serif" font-size="9" font-weight="400" text-anchor="end" fill="#666">49,400 bp</text>
<text x="24.0" y="148.0" font-family="Arial, Helvetica, sans-serif" font-size="10" font-weight="700" text-anchor="start" fill="#222">Legend (bold outline = reference-panel seed hit; thin outline = expanded genomic context)</text>
<rect x="24" y="158" width="16" height="12" fill="#d73027" stroke="#555" stroke-width="0.6"/>
<text x="46.0" y="168.0" font-family="Arial, Helvetica, sans-serif" font-size="9" font-weight="400" text-anchor="start" fill="#333">Oxygenase/dioxygenase</text>
<rect x="424" y="158" width="16" height="12" fill="#1f78b4" stroke="#555" stroke-width="0.6"/>
<text x="446.0" y="168.0" font-family="Arial, Helvetica, sans-serif" font-size="9" font-weight="400" text-anchor="start" fill="#333">CoA ligase/synthetase</text>
<rect x="824" y="158" width="16" height="12" fill="#6a3d9a" stroke="#555" stroke-width="0.6"/>
<text x="846.0" y="168.0" font-family="Arial, Helvetica, sans-serif" font-size="9" font-weight="400" text-anchor="start" fill="#333">Carboxylase</text>
<rect x="1224" y="158" width="16" height="12" fill="#33a02c" stroke="#555" stroke-width="0.6"/>
<text x="1246.0" y="168.0" font-family="Arial, Helvetica, sans-serif" font-size="9" font-weight="400" text-anchor="start" fill="#333">Dehydrogenase/oxidoreductase</text>
<rect x="24" y="180" width="16" height="12" fill="#ff7f00" stroke="#555" stroke-width="0.6"/>
<text x="46.0" y="190.0" font-family="Arial, Helvetica, sans-serif" font-size="9" font-weight="400" text-anchor="start" fill="#333">Hydratase/dehydratase/isomerase</text>
<rect x="424" y="180" width="16" height="12" fill="#b15928" stroke="#555" stroke-width="0.6"/>
<text x="446.0" y="190.0" font-family="Arial, Helvetica, sans-serif" font-size="9" font-weight="400" text-anchor="start" fill="#333">Hydrolase/decarboxylase/lyase</text>
<rect x="824" y="180" width="16" height="12" fill="#a6cee3" stroke="#555" stroke-width="0.6"/>
<text x="846.0" y="190.0" font-family="Arial, Helvetica, sans-serif" font-size="9" font-weight="400" text-anchor="start" fill="#333">Thiolase/transferase</text>
<rect x="1224" y="180" width="16" height="12" fill="#cab2d6" stroke="#555" stroke-width="0.6"/>
<text x="1246.0" y="190.0" font-family="Arial, Helvetica, sans-serif" font-size="9" font-weight="400" text-anchor="start" fill="#333">Transport/efflux</text>
<rect x="24" y="202" width="16" height="12" fill="#fdbf6f" stroke="#555" stroke-width="0.6"/>
<text x="46.0" y="212.0" font-family="Arial, Helvetica, sans-serif" font-size="9" font-weight="400" text-anchor="start" fill="#333">Regulator</text>
<rect x="424" y="202" width="16" height="12" fill="#fb9a99" stroke="#555" stroke-width="0.6"/>
<text x="446.0" y="212.0" font-family="Arial, Helvetica, sans-serif" font-size="9" font-weight="400" text-anchor="start" fill="#333">Electron transfer/redox</text>
<rect x="824" y="202" width="16" height="12" fill="#b2df8a" stroke="#555" stroke-width="0.6"/>
<text x="846.0" y="212.0" font-family="Arial, Helvetica, sans-serif" font-size="9" font-weight="400" text-anchor="start" fill="#333">Mobile/stress/accessory</text>
<rect x="1224" y="202" width="16" height="12" fill="#d9d9d9" stroke="#555" stroke-width="0.6"/>
<text x="1246.0" y="212.0" font-family="Arial, Helvetica, sans-serif" font-size="9" font-weight="400" text-anchor="start" fill="#333">Hypothetical/accessory</text>
<rect x="24" y="224" width="16" height="12" fill="#cccccc" stroke="#555" stroke-width="0.6"/>
<text x="46.0" y="234.0" font-family="Arial, Helvetica, sans-serif" font-size="9" font-weight="400" text-anchor="start" fill="#333">Accessory/other</text>
</svg>
