<svg xmlns="http://www.w3.org/2000/svg" width="1700" height="274" viewBox="0 0 1700 274">
<rect width="100%" height="100%" fill="#f8f8f6"/>
<rect x="18" y="6" width="1664" height="118" rx="6" fill="#ffffff" stroke="#dddddd"/>
<rect x="18" y="6" width="7" height="118" fill="#b2182b"/>
<text x="32.0" y="24.0" font-family="Arial, Helvetica, sans-serif" font-size="16" font-weight="700" text-anchor="start" fill="#222">Exp3_MAG_264_panelcluster_8869</text>
<text x="32.0" y="42.0" font-family="Arial, Helvetica, sans-serif" font-size="11" font-weight="700" text-anchor="start" fill="#b2182b">Exp3_MAG_264 | MAGs/Exp3_MAG_264_c_000000000305 | Multi-hit cluster (&gt;=2 independent panel gene hits)</text>
<text x="32.0" y="58.0" font-family="Arial, Helvetica, sans-serif" font-size="9" font-weight="400" text-anchor="start" fill="#444">Panel genes: BVMO; CYP450; acdB; alkB; alkH_ald; alkJ_adh; alkL;</text>
<text x="32.0" y="70.0" font-family="Arial, Helvetica, sans-serif" font-size="9" font-weight="400" text-anchor="start" fill="#444">alkS; chcAb; pimC/aabA; pimD</text>
<text x="32.0" y="82.0" font-family="Arial, Helvetica, sans-serif" font-size="9" font-weight="400" text-anchor="start" fill="#444">Panel categories: Alkanes; Beta-oxidation; Cyclohexanecarboxylate</text>
<line x1="452" y1="97.0" x2="1664" y2="97.0" stroke="#d0d0d0"/>
<polygon points="525.0,86.0 470.0,86.0 452.0,97.0 470.0,108.0 525.0,108.0" fill="#d73027" stroke="#111" stroke-width="2.2"><title>KLHJFGNP_01759 | KLHJFGNP_01759 | Oxygenase/dioxygenase | Baeyer-Villiger monooxygenase | PANEL HIT: BVMO (Alkanes / Subterminal oxidation) | pident=58.857000 qcovs=97.000000</title></polygon>
<text x="488.5" y="121.0" font-family="Arial, Helvetica, sans-serif" font-size="9" font-weight="700" text-anchor="end" transform="rotate(-45 488.5 121.0)" fill="#111">KLHJFGNP_01759 (BVMO)</text>
<polygon points="598.1,86.0 542.8,86.0 524.8,97.0 542.8,108.0 598.1,108.0" fill="#1f78b4" stroke="#888" stroke-width="0.8"><title>KLHJFGNP_01760 | KLHJFGNP_01760 | CoA ligase/synthetase | 3-oxocholest-4-en-26-oate--CoA ligase</title></polygon>
<text x="561.4" y="121.0" font-family="Arial, Helvetica, sans-serif" font-size="9" font-weight="400" text-anchor="end" transform="rotate(-45 561.4 121.0)" fill="#555">KLHJFGNP_01760</text>
<polygon points="648.7,86.0 615.4,86.0 599.0,97.0 615.4,108.0 648.7,108.0" fill="#33a02c" stroke="#111" stroke-width="2.2"><title>KLHJFGNP_01761 | acrC | Dehydrogenase/oxidoreductase | Acryloyl-CoA reductase (NADH) | PANEL HIT: pimD (Cyclohexanecarboxylate / Cyclohexanecarboxylate) | pident=30.851000 qcovs=96.000000</title></polygon>
<text x="623.9" y="121.0" font-family="Arial, Helvetica, sans-serif" font-size="9" font-weight="700" text-anchor="end" transform="rotate(-45 623.9 121.0)" fill="#111">acrC (pimD)</text>
<polygon points="704.2,86.0 666.7,86.0 648.7,97.0 666.7,108.0 704.2,108.0" fill="#33a02c" stroke="#111" stroke-width="2.2"><title>KLHJFGNP_01762 | KLHJFGNP_01762 | Dehydrogenase/oxidoreductase | Putative acyl-CoA dehydrogenase FadE17 | PANEL HIT: pimC/aabA (Cyclohexanecarboxylate / Cyclohexanecarboxylate) | pident=36.160000 qcovs=100.000000</title></polygon>
<text x="676.4" y="121.0" font-family="Arial, Helvetica, sans-serif" font-size="9" font-weight="700" text-anchor="end" transform="rotate(-45 676.4 121.0)" fill="#111">KLHJFGNP_01762 (pimC/...</text>
<polygon points="725.1,86.0 711.8,86.0 704.8,97.0 711.8,108.0 725.1,108.0" fill="#d9d9d9" stroke="#888" stroke-width="0.8"><title>KLHJFGNP_01763 | KLHJFGNP_01763 | Hypothetical/accessory | hypothetical protein</title></polygon>
<text x="715.0" y="121.0" font-family="Arial, Helvetica, sans-serif" font-size="9" font-weight="400" text-anchor="end" transform="rotate(-45 715.0 121.0)" fill="#555">KLHJFGNP_01763</text>
<polygon points="778.3,86.0 742.7,86.0 725.1,97.0 742.7,108.0 778.3,108.0" fill="#d9d9d9" stroke="#888" stroke-width="0.8"><title>KLHJFGNP_01764 | KLHJFGNP_01764 | Hypothetical/accessory | hypothetical protein</title></polygon>
<text x="751.7" y="121.0" font-family="Arial, Helvetica, sans-serif" font-size="9" font-weight="400" text-anchor="end" transform="rotate(-45 751.7 121.0)" fill="#555">KLHJFGNP_01764</text>
<polygon points="814.4,86.0 790.1,86.0 778.1,97.0 790.1,108.0 814.4,108.0" fill="#d9d9d9" stroke="#888" stroke-width="0.8"><title>KLHJFGNP_01765 | KLHJFGNP_01765 | Hypothetical/accessory | hypothetical protein</title></polygon>
<text x="796.3" y="121.0" font-family="Arial, Helvetica, sans-serif" font-size="9" font-weight="400" text-anchor="end" transform="rotate(-45 796.3 121.0)" fill="#555">KLHJFGNP_01765</text>
<polygon points="866.8,86.0 832.1,86.0 815.0,97.0 832.1,108.0 866.8,108.0" fill="#d73027" stroke="#888" stroke-width="0.8"><title>KLHJFGNP_01766 | KLHJFGNP_01766 | Oxygenase/dioxygenase | Putative monooxygenase</title></polygon>
<text x="840.9" y="121.0" font-family="Arial, Helvetica, sans-serif" font-size="9" font-weight="400" text-anchor="end" transform="rotate(-45 840.9 121.0)" fill="#555">KLHJFGNP_01766</text>
<polygon points="903.1,86.0 879.7,86.0 868.2,97.0 879.7,108.0 903.1,108.0" fill="#fdbf6f" stroke="#888" stroke-width="0.8"><title>KLHJFGNP_01767 | nanR | Regulator | HTH-type transcriptional repressor NanR</title></polygon>
<text x="885.6" y="121.0" font-family="Arial, Helvetica, sans-serif" font-size="9" font-weight="400" text-anchor="end" transform="rotate(-45 885.6 121.0)" fill="#555">nanR</text>
<polygon points="912.6,86.0 951.5,86.0 969.5,97.0 951.5,108.0 912.6,108.0" fill="#d73027" stroke="#111" stroke-width="2.2"><title>KLHJFGNP_01768 | linC | Oxygenase/dioxygenase | Linalool 8-monooxygenase | PANEL HIT: CYP450 (Alkanes / Terminal/biterminal oxidation) | pident=64.115000 qcovs=99.000000</title></polygon>
<text x="941.0" y="121.0" font-family="Arial, Helvetica, sans-serif" font-size="9" font-weight="700" text-anchor="end" transform="rotate(-45 941.0 121.0)" fill="#111">linC (CYP450)</text>
<polygon points="971.0,86.0 982.0,86.0 989.0,97.0 982.0,108.0 971.0,108.0" fill="#fb9a99" stroke="#888" stroke-width="0.8"><title>KLHJFGNP_01769 | fdxE | Electron transfer/redox | Ferredoxin-6</title></polygon>
<text x="980.0" y="121.0" font-family="Arial, Helvetica, sans-serif" font-size="9" font-weight="400" text-anchor="end" transform="rotate(-45 980.0 121.0)" fill="#555">fdxE</text>
<polygon points="986.3,86.0 1012.4,86.0 1025.3,97.0 1012.4,108.0 986.3,108.0" fill="#cccccc" stroke="#888" stroke-width="0.8"><title>KLHJFGNP_01770 | rhlA | Accessory/other | 3-(3-hydroxydecanoyloxy)decanoate synthase</title></polygon>
<text x="1005.8" y="121.0" font-family="Arial, Helvetica, sans-serif" font-size="9" font-weight="400" text-anchor="end" transform="rotate(-45 1005.8 121.0)" fill="#555">rhlA</text>
<polygon points="1025.1,86.0 1036.1,86.0 1043.1,97.0 1036.1,108.0 1025.1,108.0" fill="#d9d9d9" stroke="#888" stroke-width="0.8"><title>KLHJFGNP_01771 | KLHJFGNP_01771 | Hypothetical/accessory | hypothetical protein</title></polygon>
<text x="1034.1" y="121.0" font-family="Arial, Helvetica, sans-serif" font-size="9" font-weight="400" text-anchor="end" transform="rotate(-45 1034.1 121.0)" fill="#555">KLHJFGNP_01771</text>
<polygon points="1053.7,86.0 1064.7,86.0 1071.7,97.0 1064.7,108.0 1053.7,108.0" fill="#b2df8a" stroke="#888" stroke-width="0.8"><title>KLHJFGNP_01772 | KLHJFGNP_01772 | Mobile/stress/accessory | IS3 family transposase ISNisp3</title></polygon>
<text x="1062.7" y="121.0" font-family="Arial, Helvetica, sans-serif" font-size="9" font-weight="400" text-anchor="end" transform="rotate(-45 1062.7 121.0)" fill="#555">KLHJFGNP_01772</text>
<polygon points="1066.4,86.0 1077.4,86.0 1084.4,97.0 1077.4,108.0 1066.4,108.0" fill="#d9d9d9" stroke="#888" stroke-width="0.8"><title>KLHJFGNP_01773 | KLHJFGNP_01773 | Hypothetical/accessory | hypothetical protein</title></polygon>
<text x="1075.4" y="121.0" font-family="Arial, Helvetica, sans-serif" font-size="9" font-weight="400" text-anchor="end" transform="rotate(-45 1075.4 121.0)" fill="#555">KLHJFGNP_01773</text>
<polygon points="1085.0,86.0 1096.0,86.0 1103.0,97.0 1096.0,108.0 1085.0,108.0" fill="#b2df8a" stroke="#888" stroke-width="0.8"><title>KLHJFGNP_01774 | KLHJFGNP_01774 | Mobile/stress/accessory | IS3 family transposase ISRle5</title></polygon>
<text x="1094.0" y="121.0" font-family="Arial, Helvetica, sans-serif" font-size="9" font-weight="400" text-anchor="end" transform="rotate(-45 1094.0 121.0)" fill="#555">KLHJFGNP_01774</text>
<polygon points="1234.5,86.0 1138.7,86.0 1120.7,97.0 1138.7,108.0 1234.5,108.0" fill="#fdbf6f" stroke="#111" stroke-width="2.2"><title>KLHJFGNP_01775 | alkS | Regulator | HTH-type transcriptional regulator AlkS | PANEL HIT: alkS (Alkanes / Auxillary alkane pathway) | pident=30.760000 qcovs=92.000000</title></polygon>
<text x="1177.6" y="121.0" font-family="Arial, Helvetica, sans-serif" font-size="9" font-weight="700" text-anchor="end" transform="rotate(-45 1177.6 121.0)" fill="#111">alkS (alkS)</text>
<polygon points="1303.6,86.0 1265.8,86.0 1247.8,97.0 1265.8,108.0 1303.6,108.0" fill="#33a02c" stroke="#111" stroke-width="2.2"><title>KLHJFGNP_01776 | thcD | Dehydrogenase/oxidoreductase | Rhodocoxin reductase | PANEL HIT: chcAb (Cyclohexanecarboxylate / Cyclohexanecarboxylate) | pident=39.196000 qcovs=91.000000</title></polygon>
<text x="1275.7" y="121.0" font-family="Arial, Helvetica, sans-serif" font-size="9" font-weight="700" text-anchor="end" transform="rotate(-45 1275.7 121.0)" fill="#111">thcD (chcAb)</text>
<polygon points="1312.9,86.0 1349.3,86.0 1367.3,97.0 1349.3,108.0 1312.9,108.0" fill="#d73027" stroke="#111" stroke-width="2.2"><title>KLHJFGNP_01777 | alkB | Oxygenase/dioxygenase | Alkane 1-monooxygenase | PANEL HIT: alkB (Alkanes / Terminal/biterminal oxidation) | pident=71.867000 qcovs=97.000000</title></polygon>
<text x="1340.1" y="121.0" font-family="Arial, Helvetica, sans-serif" font-size="9" font-weight="700" text-anchor="end" transform="rotate(-45 1340.1 121.0)" fill="#111">alkB (alkB)</text>
<polygon points="1370.4,86.0 1384.7,86.0 1391.8,97.0 1384.7,108.0 1370.4,108.0" fill="#fb9a99" stroke="#888" stroke-width="0.8"><title>KLHJFGNP_01778 | norV | Electron transfer/redox | Anaerobic nitric oxide reductase flavorubredoxin</title></polygon>
<text x="1381.1" y="121.0" font-family="Arial, Helvetica, sans-serif" font-size="9" font-weight="400" text-anchor="end" transform="rotate(-45 1381.1 121.0)" fill="#555">norV</text>
<polygon points="1394.4,86.0 1442.4,86.0 1460.4,97.0 1442.4,108.0 1394.4,108.0" fill="#33a02c" stroke="#111" stroke-width="2.2"><title>KLHJFGNP_01779 | alkH | Dehydrogenase/oxidoreductase | Aldehyde dehydrogenase | PANEL HIT: alkH_ald (Alkanes / Auxillary alkane pathway) | pident=59.322000 qcovs=98.000000</title></polygon>
<text x="1427.4" y="121.0" font-family="Arial, Helvetica, sans-serif" font-size="9" font-weight="700" text-anchor="end" transform="rotate(-45 1427.4 121.0)" fill="#111">alkH (alkH_ald)</text>
<polygon points="1462.5,86.0 1520.1,86.0 1538.1,97.0 1520.1,108.0 1462.5,108.0" fill="#33a02c" stroke="#111" stroke-width="2.2"><title>KLHJFGNP_01780 | alkJ | Dehydrogenase/oxidoreductase | Alcohol dehydrogenase [acceptor] | PANEL HIT: alkJ_adh (Alkanes / Auxillary alkane pathway) | pident=67.542000 qcovs=97.000000</title></polygon>
<text x="1500.3" y="121.0" font-family="Arial, Helvetica, sans-serif" font-size="9" font-weight="700" text-anchor="end" transform="rotate(-45 1500.3 121.0)" fill="#111">alkJ (alkJ_adh)</text>
<polygon points="1541.9,86.0 1562.8,86.0 1573.0,97.0 1562.8,108.0 1541.9,108.0" fill="#d9d9d9" stroke="#111" stroke-width="2.2"><title>KLHJFGNP_01781 | KLHJFGNP_01781 | Hypothetical/accessory | hypothetical protein | PANEL HIT: alkL (Alkanes / Hydrocarbon uptake) | pident=47.085000 qcovs=96.000000</title></polygon>
<text x="1557.5" y="121.0" font-family="Arial, Helvetica, sans-serif" font-size="9" font-weight="700" text-anchor="end" transform="rotate(-45 1557.5 121.0)" fill="#111">KLHJFGNP_01781 (alkL)</text>
<polygon points="1577.6,86.0 1588.6,86.0 1595.6,97.0 1588.6,108.0 1577.6,108.0" fill="#d9d9d9" stroke="#888" stroke-width="0.8"><title>KLHJFGNP_01782 | KLHJFGNP_01782 | Hypothetical/accessory | hypothetical protein</title></polygon>
<text x="1586.6" y="121.0" font-family="Arial, Helvetica, sans-serif" font-size="9" font-weight="400" text-anchor="end" transform="rotate(-45 1586.6 121.0)" fill="#555">KLHJFGNP_01782</text>
<polygon points="1584.1,86.0 1646.0,86.0 1664.0,97.0 1646.0,108.0 1584.1,108.0" fill="#33a02c" stroke="#111" stroke-width="2.2"><title>KLHJFGNP_01783 | dmdC_2 | Dehydrogenase/oxidoreductase | 3-methylmercaptopropionyl-CoA dehydrogenase | PANEL HIT: acdB (Beta-oxidation / Beta-oxidation) | pident=43.594000 qcovs=99.000000</title></polygon>
<text x="1624.0" y="121.0" font-family="Arial, Helvetica, sans-serif" font-size="9" font-weight="700" text-anchor="end" transform="rotate(-45 1624.0 121.0)" fill="#111">dmdC_2 (acdB)</text>
<text x="452.0" y="34.0" font-family="Arial, Helvetica, sans-serif" font-size="9" font-weight="400" text-anchor="start" fill="#666">32,571 bp</text>
<text x="1664.0" y="34.0" font-family="Arial, Helvetica, sans-serif" font-size="9" font-weight="400" text-anchor="end" fill="#666">59,274 bp</text>
<text x="24.0" y="166.0" font-family="Arial, Helvetica, sans-serif" font-size="10" font-weight="700" text-anchor="start" fill="#222">Legend (bold outline = reference-panel seed hit; thin outline = expanded genomic context)</text>
<rect x="24" y="176" width="16" height="12" fill="#d73027" stroke="#555" stroke-width="0.6"/>
<text x="46.0" y="186.0" font-family="Arial, Helvetica, sans-serif" font-size="9" font-weight="400" text-anchor="start" fill="#333">Oxygenase/dioxygenase</text>
<rect x="424" y="176" width="16" height="12" fill="#1f78b4" stroke="#555" stroke-width="0.6"/>
<text x="446.0" y="186.0" font-family="Arial, Helvetica, sans-serif" font-size="9" font-weight="400" text-anchor="start" fill="#333">CoA ligase/synthetase</text>
<rect x="824" y="176" width="16" height="12" fill="#6a3d9a" stroke="#555" stroke-width="0.6"/>
<text x="846.0" y="186.0" font-family="Arial, Helvetica, sans-serif" font-size="9" font-weight="400" text-anchor="start" fill="#333">Carboxylase</text>
<rect x="1224" y="176" width="16" height="12" fill="#33a02c" stroke="#555" stroke-width="0.6"/>
<text x="1246.0" y="186.0" font-family="Arial, Helvetica, sans-serif" font-size="9" font-weight="400" text-anchor="start" fill="#333">Dehydrogenase/oxidoreductase</text>
<rect x="24" y="198" width="16" height="12" fill="#ff7f00" stroke="#555" stroke-width="0.6"/>
<text x="46.0" y="208.0" font-family="Arial, Helvetica, sans-serif" font-size="9" font-weight="400" text-anchor="start" fill="#333">Hydratase/dehydratase/isomerase</text>
<rect x="424" y="198" width="16" height="12" fill="#b15928" stroke="#555" stroke-width="0.6"/>
<text x="446.0" y="208.0" font-family="Arial, Helvetica, sans-serif" font-size="9" font-weight="400" text-anchor="start" fill="#333">Hydrolase/decarboxylase/lyase</text>
<rect x="824" y="198" width="16" height="12" fill="#a6cee3" stroke="#555" stroke-width="0.6"/>
<text x="846.0" y="208.0" font-family="Arial, Helvetica, sans-serif" font-size="9" font-weight="400" text-anchor="start" fill="#333">Thiolase/transferase</text>
<rect x="1224" y="198" width="16" height="12" fill="#cab2d6" stroke="#555" stroke-width="0.6"/>
<text x="1246.0" y="208.0" font-family="Arial, Helvetica, sans-serif" font-size="9" font-weight="400" text-anchor="start" fill="#333">Transport/efflux</text>
<rect x="24" y="220" width="16" height="12" fill="#fdbf6f" stroke="#555" stroke-width="0.6"/>
<text x="46.0" y="230.0" font-family="Arial, Helvetica, sans-serif" font-size="9" font-weight="400" text-anchor="start" fill="#333">Regulator</text>
<rect x="424" y="220" width="16" height="12" fill="#fb9a99" stroke="#555" stroke-width="0.6"/>
<text x="446.0" y="230.0" font-family="Arial, Helvetica, sans-serif" font-size="9" font-weight="400" text-anchor="start" fill="#333">Electron transfer/redox</text>
<rect x="824" y="220" width="16" height="12" fill="#b2df8a" stroke="#555" stroke-width="0.6"/>
<text x="846.0" y="230.0" font-family="Arial, Helvetica, sans-serif" font-size="9" font-weight="400" text-anchor="start" fill="#333">Mobile/stress/accessory</text>
<rect x="1224" y="220" width="16" height="12" fill="#d9d9d9" stroke="#555" stroke-width="0.6"/>
<text x="1246.0" y="230.0" font-family="Arial, Helvetica, sans-serif" font-size="9" font-weight="400" text-anchor="start" fill="#333">Hypothetical/accessory</text>
<rect x="24" y="242" width="16" height="12" fill="#cccccc" stroke="#555" stroke-width="0.6"/>
<text x="46.0" y="252.0" font-family="Arial, Helvetica, sans-serif" font-size="9" font-weight="400" text-anchor="start" fill="#333">Accessory/other</text>
</svg>
