<svg xmlns="http://www.w3.org/2000/svg" width="1700" height="274" viewBox="0 0 1700 274">
<rect width="100%" height="100%" fill="#f8f8f6"/>
<rect x="18" y="6" width="1664" height="118" rx="6" fill="#ffffff" stroke="#dddddd"/>
<rect x="18" y="6" width="7" height="118" fill="#b2182b"/>
<text x="32.0" y="24.0" font-family="Arial, Helvetica, sans-serif" font-size="16" font-weight="700" text-anchor="start" fill="#222">GCF_000475355.1_panelcluster_14325</text>
<text x="32.0" y="42.0" font-family="Arial, Helvetica, sans-serif" font-size="11" font-weight="700" text-anchor="start" fill="#b2182b">GCF_000475355.1 | c_000000000015 | Multi-hit cluster (&gt;=2 independent panel gene hits)</text>
<text x="32.0" y="58.0" font-family="Arial, Helvetica, sans-serif" font-size="9" font-weight="400" text-anchor="start" fill="#444">Panel genes: alkN_mcp; est; mhbH; pimC/aabA; subC</text>
<text x="32.0" y="70.0" font-family="Arial, Helvetica, sans-serif" font-size="9" font-weight="400" text-anchor="start" fill="#444">Panel categories: Alkanes; Cyclohexanecarboxylate; Gentisate;</text>
<text x="32.0" y="82.0" font-family="Arial, Helvetica, sans-serif" font-size="9" font-weight="400" text-anchor="start" fill="#444">Plastics</text>
<line x1="452" y1="97.0" x2="1664" y2="97.0" stroke="#d0d0d0"/>
<polygon points="452.0,86.0 483.4,86.0 498.9,97.0 483.4,108.0 452.0,108.0" fill="#d9d9d9" stroke="#111" stroke-width="2.2"><title>JLNGFIFD_00976 | JLNGFIFD_00976 | Hypothetical/accessory | hypothetical protein | PANEL HIT: alkN_mcp (Alkanes / Hydrocarbon uptake) | pident=31.818000 qcovs=62.000000</title></polygon>
<text x="475.4" y="121.0" font-family="Arial, Helvetica, sans-serif" font-size="9" font-weight="700" text-anchor="end" transform="rotate(-45 475.4 121.0)" fill="#111">JLNGFIFD_00976 (alkN_...</text>
<polygon points="517.8,86.0 506.8,86.0 499.8,97.0 506.8,108.0 517.8,108.0" fill="#cccccc" stroke="#888" stroke-width="0.8"><title>JLNGFIFD_00977 | yceI_2 | Accessory/other | Protein YceI</title></polygon>
<text x="508.8" y="121.0" font-family="Arial, Helvetica, sans-serif" font-size="9" font-weight="400" text-anchor="end" transform="rotate(-45 508.8 121.0)" fill="#555">yceI_2</text>
<polygon points="536.2,86.0 525.2,86.0 518.2,97.0 525.2,108.0 536.2,108.0" fill="#cccccc" stroke="#888" stroke-width="0.8"><title>JLNGFIFD_00978 | yceJ | Accessory/other | Cytochrome b561 </title></polygon>
<text x="527.2" y="121.0" font-family="Arial, Helvetica, sans-serif" font-size="9" font-weight="400" text-anchor="end" transform="rotate(-45 527.2 121.0)" fill="#555">yceJ</text>
<polygon points="550.5,86.0 575.1,86.0 587.2,97.0 575.1,108.0 550.5,108.0" fill="#d9d9d9" stroke="#888" stroke-width="0.8"><title>JLNGFIFD_00979 | JLNGFIFD_00979 | Hypothetical/accessory | hypothetical protein</title></polygon>
<text x="568.9" y="121.0" font-family="Arial, Helvetica, sans-serif" font-size="9" font-weight="400" text-anchor="end" transform="rotate(-45 568.9 121.0)" fill="#555">JLNGFIFD_00979</text>
<polygon points="637.4,86.0 603.5,86.0 586.9,97.0 603.5,108.0 637.4,108.0" fill="#d9d9d9" stroke="#888" stroke-width="0.8"><title>JLNGFIFD_00980 | JLNGFIFD_00980 | Hypothetical/accessory | hypothetical protein</title></polygon>
<text x="612.1" y="121.0" font-family="Arial, Helvetica, sans-serif" font-size="9" font-weight="400" text-anchor="end" transform="rotate(-45 612.1 121.0)" fill="#555">JLNGFIFD_00980</text>
<polygon points="694.4,86.0 658.1,86.0 640.2,97.0 658.1,108.0 694.4,108.0" fill="#ff7f00" stroke="#888" stroke-width="0.8"><title>JLNGFIFD_00981 | parE | Hydratase/dehydratase/isomerase | DNA topoisomerase 4 subunit B</title></polygon>
<text x="667.3" y="121.0" font-family="Arial, Helvetica, sans-serif" font-size="9" font-weight="400" text-anchor="end" transform="rotate(-45 667.3 121.0)" fill="#555">parE</text>
<polygon points="715.1,86.0 704.1,86.0 697.1,97.0 704.1,108.0 715.1,108.0" fill="#d9d9d9" stroke="#888" stroke-width="0.8"><title>JLNGFIFD_00982 | JLNGFIFD_00982 | Hypothetical/accessory | hypothetical protein</title></polygon>
<text x="706.1" y="121.0" font-family="Arial, Helvetica, sans-serif" font-size="9" font-weight="400" text-anchor="end" transform="rotate(-45 706.1 121.0)" fill="#555">JLNGFIFD_00982</text>
<polygon points="785.9,86.0 729.2,86.0 711.2,97.0 729.2,108.0 785.9,108.0" fill="#d9d9d9" stroke="#111" stroke-width="2.2"><title>JLNGFIFD_00983 | JLNGFIFD_00983 | Hypothetical/accessory | hypothetical protein | PANEL HIT: subC (Plastics / PLA) | pident=35.664000 qcovs=64.000000</title></polygon>
<text x="748.6" y="121.0" font-family="Arial, Helvetica, sans-serif" font-size="9" font-weight="700" text-anchor="end" transform="rotate(-45 748.6 121.0)" fill="#111">JLNGFIFD_00983 (subC)</text>
<polygon points="848.9,86.0 808.2,86.0 790.2,97.0 808.2,108.0 848.9,108.0" fill="#d9d9d9" stroke="#888" stroke-width="0.8"><title>JLNGFIFD_00984 | JLNGFIFD_00984 | Hypothetical/accessory | hypothetical protein</title></polygon>
<text x="819.6" y="121.0" font-family="Arial, Helvetica, sans-serif" font-size="9" font-weight="400" text-anchor="end" transform="rotate(-45 819.6 121.0)" fill="#555">JLNGFIFD_00984</text>
<polygon points="878.3,86.0 858.9,86.0 849.3,97.0 858.9,108.0 878.3,108.0" fill="#d9d9d9" stroke="#888" stroke-width="0.8"><title>JLNGFIFD_00985 | JLNGFIFD_00985 | Hypothetical/accessory | hypothetical protein</title></polygon>
<text x="863.8" y="121.0" font-family="Arial, Helvetica, sans-serif" font-size="9" font-weight="400" text-anchor="end" transform="rotate(-45 863.8 121.0)" fill="#555">JLNGFIFD_00985</text>
<polygon points="910.5,86.0 890.1,86.0 880.1,97.0 890.1,108.0 910.5,108.0" fill="#d9d9d9" stroke="#888" stroke-width="0.8"><title>JLNGFIFD_00986 | JLNGFIFD_00986 | Hypothetical/accessory | hypothetical protein</title></polygon>
<text x="895.3" y="121.0" font-family="Arial, Helvetica, sans-serif" font-size="9" font-weight="400" text-anchor="end" transform="rotate(-45 895.3 121.0)" fill="#555">JLNGFIFD_00986</text>
<polygon points="937.0,86.0 926.0,86.0 919.0,97.0 926.0,108.0 937.0,108.0" fill="#fdbf6f" stroke="#888" stroke-width="0.8"><title>JLNGFIFD_00987 | kstR2_1 | Regulator | HTH-type transcriptional repressor KstR2</title></polygon>
<text x="928.0" y="121.0" font-family="Arial, Helvetica, sans-serif" font-size="9" font-weight="400" text-anchor="end" transform="rotate(-45 928.0 121.0)" fill="#555">kstR2_1</text>
<polygon points="940.8,86.0 975.2,86.0 992.2,97.0 975.2,108.0 940.8,108.0" fill="#d9d9d9" stroke="#888" stroke-width="0.8"><title>JLNGFIFD_00988 | JLNGFIFD_00988 | Hypothetical/accessory | hypothetical protein</title></polygon>
<text x="966.5" y="121.0" font-family="Arial, Helvetica, sans-serif" font-size="9" font-weight="400" text-anchor="end" transform="rotate(-45 966.5 121.0)" fill="#555">JLNGFIFD_00988</text>
<polygon points="998.6,86.0 1015.2,86.0 1023.4,97.0 1015.2,108.0 998.6,108.0" fill="#33a02c" stroke="#888" stroke-width="0.8"><title>JLNGFIFD_00989 | fadH_2 | Dehydrogenase/oxidoreductase | putative 2,4-dienoyl-CoA reductase</title></polygon>
<text x="1011.0" y="121.0" font-family="Arial, Helvetica, sans-serif" font-size="9" font-weight="400" text-anchor="end" transform="rotate(-45 1011.0 121.0)" fill="#555">fadH_2</text>
<polygon points="1023.7,86.0 1054.6,86.0 1069.9,97.0 1054.6,108.0 1023.7,108.0" fill="#6a3d9a" stroke="#888" stroke-width="0.8"><title>JLNGFIFD_00990 | pccB | Carboxylase | Propionyl-CoA carboxylase beta chain</title></polygon>
<text x="1046.8" y="121.0" font-family="Arial, Helvetica, sans-serif" font-size="9" font-weight="400" text-anchor="end" transform="rotate(-45 1046.8 121.0)" fill="#555">pccB</text>
<polygon points="1070.8,86.0 1093.0,86.0 1104.0,97.0 1093.0,108.0 1070.8,108.0" fill="#33a02c" stroke="#111" stroke-width="2.2"><title>JLNGFIFD_00991 | acdA_1 | Dehydrogenase/oxidoreductase | Acyl-CoA dehydrogenase | PANEL HIT: pimC/aabA (Cyclohexanecarboxylate / Cyclohexanecarboxylate) | pident=31.266000 qcovs=98.000000</title></polygon>
<text x="1087.4" y="121.0" font-family="Arial, Helvetica, sans-serif" font-size="9" font-weight="700" text-anchor="end" transform="rotate(-45 1087.4 121.0)" fill="#111">acdA_1 (pimC/aabA)</text>
<polygon points="1109.2,86.0 1124.9,86.0 1132.6,97.0 1124.9,108.0 1109.2,108.0" fill="#ff7f00" stroke="#888" stroke-width="0.8"><title>JLNGFIFD_00992 | crt_1 | Hydratase/dehydratase/isomerase | Short-chain-enoyl-CoA hydratase</title></polygon>
<text x="1120.9" y="121.0" font-family="Arial, Helvetica, sans-serif" font-size="9" font-weight="400" text-anchor="end" transform="rotate(-45 1120.9 121.0)" fill="#555">crt_1</text>
<polygon points="1139.1,86.0 1177.2,86.0 1195.2,97.0 1177.2,108.0 1139.1,108.0" fill="#6a3d9a" stroke="#888" stroke-width="0.8"><title>JLNGFIFD_00993 | accA1_2 | Carboxylase | Acetyl-/propionyl-coenzyme A carboxylase alpha chain</title></polygon>
<text x="1167.1" y="121.0" font-family="Arial, Helvetica, sans-serif" font-size="9" font-weight="400" text-anchor="end" transform="rotate(-45 1167.1 121.0)" fill="#555">accA1_2</text>
<polygon points="1195.0,86.0 1210.9,86.0 1218.6,97.0 1210.9,108.0 1195.0,108.0" fill="#33a02c" stroke="#888" stroke-width="0.8"><title>JLNGFIFD_00994 | fabG_2 | Dehydrogenase/oxidoreductase | 3-oxoacyl-[acyl-carrier-protein] reductase FabG</title></polygon>
<text x="1206.8" y="121.0" font-family="Arial, Helvetica, sans-serif" font-size="9" font-weight="400" text-anchor="end" transform="rotate(-45 1206.8 121.0)" fill="#555">fabG_2</text>
<polygon points="1220.6,86.0 1255.7,86.0 1273.0,97.0 1255.7,108.0 1220.6,108.0" fill="#1f78b4" stroke="#888" stroke-width="0.8"><title>JLNGFIFD_00995 | JLNGFIFD_00995 | CoA ligase/synthetase | Long-chain-fatty-acid--CoA ligase FadD17</title></polygon>
<text x="1246.8" y="121.0" font-family="Arial, Helvetica, sans-serif" font-size="9" font-weight="400" text-anchor="end" transform="rotate(-45 1246.8 121.0)" fill="#555">JLNGFIFD_00995</text>
<polygon points="1312.4,86.0 1293.5,86.0 1284.3,97.0 1293.5,108.0 1312.4,108.0" fill="#fb9a99" stroke="#888" stroke-width="0.8"><title>JLNGFIFD_00996 | qorA | Electron transfer/redox | Quinone oxidoreductase 1</title></polygon>
<text x="1298.3" y="121.0" font-family="Arial, Helvetica, sans-serif" font-size="9" font-weight="400" text-anchor="end" transform="rotate(-45 1298.3 121.0)" fill="#555">qorA</text>
<polygon points="1334.8,86.0 1323.8,86.0 1316.8,97.0 1323.8,108.0 1334.8,108.0" fill="#d9d9d9" stroke="#888" stroke-width="0.8"><title>JLNGFIFD_00997 | JLNGFIFD_00997 | Hypothetical/accessory | hypothetical protein</title></polygon>
<text x="1325.8" y="121.0" font-family="Arial, Helvetica, sans-serif" font-size="9" font-weight="400" text-anchor="end" transform="rotate(-45 1325.8 121.0)" fill="#555">JLNGFIFD_00997</text>
<polygon points="1338.3,86.0 1349.3,86.0 1356.3,97.0 1349.3,108.0 1338.3,108.0" fill="#d9d9d9" stroke="#888" stroke-width="0.8"><title>JLNGFIFD_00998 | JLNGFIFD_00998 | Hypothetical/accessory | hypothetical protein</title></polygon>
<text x="1347.3" y="121.0" font-family="Arial, Helvetica, sans-serif" font-size="9" font-weight="400" text-anchor="end" transform="rotate(-45 1347.3 121.0)" fill="#555">JLNGFIFD_00998</text>
<polygon points="1359.8,86.0 1384.7,86.0 1397.0,97.0 1384.7,108.0 1359.8,108.0" fill="#cab2d6" stroke="#888" stroke-width="0.8"><title>JLNGFIFD_00999 | adeP | Transport/efflux | Adenine permease AdeP</title></polygon>
<text x="1378.4" y="121.0" font-family="Arial, Helvetica, sans-serif" font-size="9" font-weight="400" text-anchor="end" transform="rotate(-45 1378.4 121.0)" fill="#555">adeP</text>
<polygon points="1397.8,86.0 1408.8,86.0 1415.8,97.0 1408.8,108.0 1397.8,108.0" fill="#cccccc" stroke="#888" stroke-width="0.8"><title>JLNGFIFD_01000 | apt | Accessory/other | Adenine phosphoribosyltransferase</title></polygon>
<text x="1406.8" y="121.0" font-family="Arial, Helvetica, sans-serif" font-size="9" font-weight="400" text-anchor="end" transform="rotate(-45 1406.8 121.0)" fill="#555">apt</text>
<polygon points="1413.8,86.0 1425.8,86.0 1432.8,97.0 1425.8,108.0 1413.8,108.0" fill="#cccccc" stroke="#111" stroke-width="2.2"><title>JLNGFIFD_01001 | ycgM | Accessory/other | putative protein YcgM | PANEL HIT: mhbH (Gentisate / Gentisate) | pident=30.726000 qcovs=93.000000</title></polygon>
<text x="1423.3" y="121.0" font-family="Arial, Helvetica, sans-serif" font-size="9" font-weight="700" text-anchor="end" transform="rotate(-45 1423.3 121.0)" fill="#111">ycgM (mhbH)</text>
<polygon points="1434.5,86.0 1459.5,86.0 1471.8,97.0 1459.5,108.0 1434.5,108.0" fill="#cccccc" stroke="#888" stroke-width="0.8"><title>JLNGFIFD_01002 | ubiB_1 | Accessory/other | protein kinase UbiB</title></polygon>
<text x="1453.1" y="121.0" font-family="Arial, Helvetica, sans-serif" font-size="9" font-weight="400" text-anchor="end" transform="rotate(-45 1453.1 121.0)" fill="#555">ubiB_1</text>
<polygon points="1491.4,86.0 1479.0,86.0 1472.0,97.0 1479.0,108.0 1491.4,108.0" fill="#cccccc" stroke="#888" stroke-width="0.8"><title>JLNGFIFD_01003 | cobB_1 | Accessory/other | NAD-dependent protein deacylase</title></polygon>
<text x="1481.7" y="121.0" font-family="Arial, Helvetica, sans-serif" font-size="9" font-weight="400" text-anchor="end" transform="rotate(-45 1481.7 121.0)" fill="#555">cobB_1</text>
<polygon points="1531.6,86.0 1504.7,86.0 1491.4,97.0 1504.7,108.0 1531.6,108.0" fill="#33a02c" stroke="#888" stroke-width="0.8"><title>JLNGFIFD_01004 | JLNGFIFD_01004 | Dehydrogenase/oxidoreductase | putative FAD-linked oxidoreductase</title></polygon>
<text x="1511.5" y="121.0" font-family="Arial, Helvetica, sans-serif" font-size="9" font-weight="400" text-anchor="end" transform="rotate(-45 1511.5 121.0)" fill="#555">JLNGFIFD_01004</text>
<polygon points="1537.0,86.0 1560.6,86.0 1572.2,97.0 1560.6,108.0 1537.0,108.0" fill="#33a02c" stroke="#888" stroke-width="0.8"><title>JLNGFIFD_01005 | serA | Dehydrogenase/oxidoreductase | D-3-phosphoglycerate dehydrogenase</title></polygon>
<text x="1554.6" y="121.0" font-family="Arial, Helvetica, sans-serif" font-size="9" font-weight="400" text-anchor="end" transform="rotate(-45 1554.6 121.0)" fill="#555">serA</text>
<polygon points="1577.5,86.0 1588.5,86.0 1595.5,97.0 1588.5,108.0 1577.5,108.0" fill="#d9d9d9" stroke="#888" stroke-width="0.8"><title>JLNGFIFD_01006 | JLNGFIFD_01006 | Hypothetical/accessory | hypothetical protein</title></polygon>
<text x="1586.5" y="121.0" font-family="Arial, Helvetica, sans-serif" font-size="9" font-weight="400" text-anchor="end" transform="rotate(-45 1586.5 121.0)" fill="#555">JLNGFIFD_01006</text>
<polygon points="1608.0,86.0 1594.7,86.0 1587.7,97.0 1594.7,108.0 1608.0,108.0" fill="#cccccc" stroke="#888" stroke-width="0.8"><title>JLNGFIFD_01007 | yiaD | Accessory/other | putative lipoprotein YiaD</title></polygon>
<text x="1597.8" y="121.0" font-family="Arial, Helvetica, sans-serif" font-size="9" font-weight="400" text-anchor="end" transform="rotate(-45 1597.8 121.0)" fill="#555">yiaD</text>
<polygon points="1636.4,86.0 1617.4,86.0 1608.1,97.0 1617.4,108.0 1636.4,108.0" fill="#d9d9d9" stroke="#888" stroke-width="0.8"><title>JLNGFIFD_01008 | JLNGFIFD_01008 | Hypothetical/accessory | hypothetical protein</title></polygon>
<text x="1622.3" y="121.0" font-family="Arial, Helvetica, sans-serif" font-size="9" font-weight="400" text-anchor="end" transform="rotate(-45 1622.3 121.0)" fill="#555">JLNGFIFD_01008</text>
<polygon points="1638.4,86.0 1655.6,86.0 1664.0,97.0 1655.6,108.0 1638.4,108.0" fill="#b15928" stroke="#111" stroke-width="2.2"><title>JLNGFIFD_01009 | lipR | Hydrolase/decarboxylase/lyase | Putative acetyl-hydrolase LipR | PANEL HIT: est (Plastics / PBAT) | pident=37.370000 qcovs=98.000000</title></polygon>
<text x="1651.2" y="121.0" font-family="Arial, Helvetica, sans-serif" font-size="9" font-weight="700" text-anchor="end" transform="rotate(-45 1651.2 121.0)" fill="#111">lipR (est)</text>
<text x="452.0" y="34.0" font-family="Arial, Helvetica, sans-serif" font-size="9" font-weight="400" text-anchor="start" fill="#666">62,045 bp</text>
<text x="1664.0" y="34.0" font-family="Arial, Helvetica, sans-serif" font-size="9" font-weight="400" text-anchor="end" fill="#666">104,403 bp</text>
<text x="24.0" y="166.0" font-family="Arial, Helvetica, sans-serif" font-size="10" font-weight="700" text-anchor="start" fill="#222">Legend (bold outline = reference-panel seed hit; thin outline = expanded genomic context)</text>
<rect x="24" y="176" width="16" height="12" fill="#d73027" stroke="#555" stroke-width="0.6"/>
<text x="46.0" y="186.0" font-family="Arial, Helvetica, sans-serif" font-size="9" font-weight="400" text-anchor="start" fill="#333">Oxygenase/dioxygenase</text>
<rect x="424" y="176" width="16" height="12" fill="#1f78b4" stroke="#555" stroke-width="0.6"/>
<text x="446.0" y="186.0" font-family="Arial, Helvetica, sans-serif" font-size="9" font-weight="400" text-anchor="start" fill="#333">CoA ligase/synthetase</text>
<rect x="824" y="176" width="16" height="12" fill="#6a3d9a" stroke="#555" stroke-width="0.6"/>
<text x="846.0" y="186.0" font-family="Arial, Helvetica, sans-serif" font-size="9" font-weight="400" text-anchor="start" fill="#333">Carboxylase</text>
<rect x="1224" y="176" width="16" height="12" fill="#33a02c" stroke="#555" stroke-width="0.6"/>
<text x="1246.0" y="186.0" font-family="Arial, Helvetica, sans-serif" font-size="9" font-weight="400" text-anchor="start" fill="#333">Dehydrogenase/oxidoreductase</text>
<rect x="24" y="198" width="16" height="12" fill="#ff7f00" stroke="#555" stroke-width="0.6"/>
<text x="46.0" y="208.0" font-family="Arial, Helvetica, sans-serif" font-size="9" font-weight="400" text-anchor="start" fill="#333">Hydratase/dehydratase/isomerase</text>
<rect x="424" y="198" width="16" height="12" fill="#b15928" stroke="#555" stroke-width="0.6"/>
<text x="446.0" y="208.0" font-family="Arial, Helvetica, sans-serif" font-size="9" font-weight="400" text-anchor="start" fill="#333">Hydrolase/decarboxylase/lyase</text>
<rect x="824" y="198" width="16" height="12" fill="#a6cee3" stroke="#555" stroke-width="0.6"/>
<text x="846.0" y="208.0" font-family="Arial, Helvetica, sans-serif" font-size="9" font-weight="400" text-anchor="start" fill="#333">Thiolase/transferase</text>
<rect x="1224" y="198" width="16" height="12" fill="#cab2d6" stroke="#555" stroke-width="0.6"/>
<text x="1246.0" y="208.0" font-family="Arial, Helvetica, sans-serif" font-size="9" font-weight="400" text-anchor="start" fill="#333">Transport/efflux</text>
<rect x="24" y="220" width="16" height="12" fill="#fdbf6f" stroke="#555" stroke-width="0.6"/>
<text x="46.0" y="230.0" font-family="Arial, Helvetica, sans-serif" font-size="9" font-weight="400" text-anchor="start" fill="#333">Regulator</text>
<rect x="424" y="220" width="16" height="12" fill="#fb9a99" stroke="#555" stroke-width="0.6"/>
<text x="446.0" y="230.0" font-family="Arial, Helvetica, sans-serif" font-size="9" font-weight="400" text-anchor="start" fill="#333">Electron transfer/redox</text>
<rect x="824" y="220" width="16" height="12" fill="#b2df8a" stroke="#555" stroke-width="0.6"/>
<text x="846.0" y="230.0" font-family="Arial, Helvetica, sans-serif" font-size="9" font-weight="400" text-anchor="start" fill="#333">Mobile/stress/accessory</text>
<rect x="1224" y="220" width="16" height="12" fill="#d9d9d9" stroke="#555" stroke-width="0.6"/>
<text x="1246.0" y="230.0" font-family="Arial, Helvetica, sans-serif" font-size="9" font-weight="400" text-anchor="start" fill="#333">Hypothetical/accessory</text>
<rect x="24" y="242" width="16" height="12" fill="#cccccc" stroke="#555" stroke-width="0.6"/>
<text x="46.0" y="252.0" font-family="Arial, Helvetica, sans-serif" font-size="9" font-weight="400" text-anchor="start" fill="#333">Accessory/other</text>
</svg>
