<svg xmlns="http://www.w3.org/2000/svg" width="1700" height="274" viewBox="0 0 1700 274">
<rect width="100%" height="100%" fill="#f8f8f6"/>
<rect x="18" y="6" width="1664" height="118" rx="6" fill="#ffffff" stroke="#dddddd"/>
<rect x="18" y="6" width="7" height="118" fill="#b2182b"/>
<text x="32.0" y="24.0" font-family="Arial, Helvetica, sans-serif" font-size="16" font-weight="700" text-anchor="start" fill="#222">GCF_041920375.1_panelcluster_16347</text>
<text x="32.0" y="42.0" font-family="Arial, Helvetica, sans-serif" font-size="11" font-weight="700" text-anchor="start" fill="#b2182b">GCF_041920375.1 | c_000000000011 | Multi-hit cluster (&gt;=2 independent panel gene hits)</text>
<text x="32.0" y="58.0" font-family="Arial, Helvetica, sans-serif" font-size="9" font-weight="400" text-anchor="start" fill="#444">Panel genes: ahpF; crt; fadD; hapE; mhbD</text>
<text x="32.0" y="70.0" font-family="Arial, Helvetica, sans-serif" font-size="9" font-weight="400" text-anchor="start" fill="#444">Panel categories: Alkanes; Beta-oxidation; Gentisate; Hydroquinone</text>
<line x1="452" y1="97.0" x2="1664" y2="97.0" stroke="#d0d0d0"/>
<polygon points="546.0,86.0 470.0,86.0 452.0,97.0 470.0,108.0 546.0,108.0" fill="#d73027" stroke="#111" stroke-width="2.2"><title>CPAAEFKI_00503 | sdgD | Oxygenase/dioxygenase | Gentisate 1,2-dioxygenase | PANEL HIT: mhbD (Gentisate / Gentisate) | pident=40.469000 qcovs=96.000000</title></polygon>
<text x="499.0" y="121.0" font-family="Arial, Helvetica, sans-serif" font-size="9" font-weight="700" text-anchor="middle" fill="#111">sdgD (mhbD)</text>
<polygon points="564.8,86.0 610.6,86.0 628.6,97.0 610.6,108.0 564.8,108.0" fill="#fdbf6f" stroke="#888" stroke-width="0.8"><title>CPAAEFKI_00504 | yiaJ | Regulator | DNA-binding transcriptional repressor YiaJ</title></polygon>
<text x="596.7" y="121.0" font-family="Arial, Helvetica, sans-serif" font-size="9" font-weight="400" text-anchor="middle" fill="#555">yiaJ</text>
<polygon points="675.0,86.0 650.4,86.0 638.3,97.0 650.4,108.0 675.0,108.0" fill="#b15928" stroke="#888" stroke-width="0.8"><title>CPAAEFKI_00505 | paaZ | Hydrolase/decarboxylase/lyase | Bifunctional protein PaaZ</title></polygon>
<text x="656.7" y="121.0" font-family="Arial, Helvetica, sans-serif" font-size="9" font-weight="400" text-anchor="middle" fill="#555">paaZ</text>
<polygon points="690.7,86.0 788.4,86.0 806.4,97.0 788.4,108.0 690.7,108.0" fill="#fdbf6f" stroke="#888" stroke-width="0.8"><title>CPAAEFKI_00506 | norR_1 | Regulator | Anaerobic nitric oxide reductase transcription regulator NorR</title></polygon>
<text x="748.5" y="121.0" font-family="Arial, Helvetica, sans-serif" font-size="9" font-weight="400" text-anchor="middle" fill="#555">norR_1</text>
<polygon points="823.5,86.0 936.2,86.0 954.2,97.0 936.2,108.0 823.5,108.0" fill="#1f78b4" stroke="#111" stroke-width="2.2"><title>CPAAEFKI_00507 | CPAAEFKI_00507 | CoA ligase/synthetase | Long-chain-fatty-acid--CoA ligase FadD13 | PANEL HIT: fadD (Beta-oxidation / Beta-oxidation) | pident=32.039000 qcovs=91.000000</title></polygon>
<text x="888.9" y="121.0" font-family="Arial, Helvetica, sans-serif" font-size="9" font-weight="700" text-anchor="middle" fill="#111">CPAAEFKI_00507 (fadD)</text>
<polygon points="969.1,86.0 1018.0,86.0 1036.0,97.0 1018.0,108.0 969.1,108.0" fill="#ff7f00" stroke="#111" stroke-width="2.2"><title>CPAAEFKI_00508 | echA8_1 | Hydratase/dehydratase/isomerase | putative enoyl-CoA hydratase echA8 | PANEL HIT: crt (Beta-oxidation / Beta-oxidation) | pident=41.810000 qcovs=88.000000</title></polygon>
<text x="1002.6" y="121.0" font-family="Arial, Helvetica, sans-serif" font-size="9" font-weight="700" text-anchor="middle" fill="#111">echA8_1 (crt)</text>
<polygon points="1043.5,86.0 1149.1,86.0 1167.1,97.0 1149.1,108.0 1043.5,108.0" fill="#d9d9d9" stroke="#888" stroke-width="0.8"><title>CPAAEFKI_00509 | CPAAEFKI_00509 | Hypothetical/accessory | hypothetical protein</title></polygon>
<text x="1105.3" y="121.0" font-family="Arial, Helvetica, sans-serif" font-size="9" font-weight="400" text-anchor="middle" fill="#555">CPAAEFKI_00509</text>
<polygon points="1213.0,86.0 1224.0,86.0 1231.0,97.0 1224.0,108.0 1213.0,108.0" fill="#d9d9d9" stroke="#888" stroke-width="0.8"><title>CPAAEFKI_00510 | CPAAEFKI_00510 | Hypothetical/accessory | hypothetical protein</title></polygon>
<text x="1222.0" y="121.0" font-family="Arial, Helvetica, sans-serif" font-size="9" font-weight="400" text-anchor="middle" fill="#555">CPAAEFKI_00510</text>
<polygon points="1275.3,86.0 1247.8,86.0 1234.2,97.0 1247.8,108.0 1275.3,108.0" fill="#d9d9d9" stroke="#888" stroke-width="0.8"><title>CPAAEFKI_00511 | CPAAEFKI_00511 | Hypothetical/accessory | hypothetical protein</title></polygon>
<text x="1254.7" y="121.0" font-family="Arial, Helvetica, sans-serif" font-size="9" font-weight="400" text-anchor="middle" fill="#555">CPAAEFKI_00511</text>
<polygon points="1354.9,86.0 1292.7,86.0 1274.7,97.0 1292.7,108.0 1354.9,108.0" fill="#cccccc" stroke="#888" stroke-width="0.8"><title>CPAAEFKI_00512 | yisK_1 | Accessory/other | putative protein YisK</title></polygon>
<text x="1314.8" y="121.0" font-family="Arial, Helvetica, sans-serif" font-size="9" font-weight="400" text-anchor="middle" fill="#555">yisK_1</text>
<polygon points="1395.0,86.0 1505.9,86.0 1523.9,97.0 1505.9,108.0 1395.0,108.0" fill="#33a02c" stroke="#111" stroke-width="2.2"><title>CPAAEFKI_00513 | ahpF_1 | Dehydrogenase/oxidoreductase | NADH dehydrogenase | PANEL HIT: ahpF (Alkanes / Finnerty pathway) | pident=55.319000 qcovs=99.000000</title></polygon>
<text x="1459.5" y="121.0" font-family="Arial, Helvetica, sans-serif" font-size="9" font-weight="700" text-anchor="middle" fill="#111">ahpF_1 (ahpF)</text>
<polygon points="1664.0,86.0 1557.7,86.0 1539.7,97.0 1557.7,108.0 1664.0,108.0" fill="#33a02c" stroke="#111" stroke-width="2.2"><title>CPAAEFKI_00514 | gbsA_1 | Dehydrogenase/oxidoreductase | Betaine aldehyde dehydrogenase | PANEL HIT: hapE (Hydroquinone / Hydroquinone) | pident=48.665000 qcovs=99.000000</title></polygon>
<text x="1601.8" y="121.0" font-family="Arial, Helvetica, sans-serif" font-size="9" font-weight="700" text-anchor="middle" fill="#111">gbsA_1 (hapE)</text>
<text x="452.0" y="34.0" font-family="Arial, Helvetica, sans-serif" font-size="9" font-weight="400" text-anchor="start" fill="#666">4,253 bp</text>
<text x="1664.0" y="34.0" font-family="Arial, Helvetica, sans-serif" font-size="9" font-weight="400" text-anchor="end" fill="#666">18,609 bp</text>
<text x="24.0" y="166.0" font-family="Arial, Helvetica, sans-serif" font-size="10" font-weight="700" text-anchor="start" fill="#222">Legend (bold outline = reference-panel seed hit; thin outline = expanded genomic context)</text>
<rect x="24" y="176" width="16" height="12" fill="#d73027" stroke="#555" stroke-width="0.6"/>
<text x="46.0" y="186.0" font-family="Arial, Helvetica, sans-serif" font-size="9" font-weight="400" text-anchor="start" fill="#333">Oxygenase/dioxygenase</text>
<rect x="424" y="176" width="16" height="12" fill="#1f78b4" stroke="#555" stroke-width="0.6"/>
<text x="446.0" y="186.0" font-family="Arial, Helvetica, sans-serif" font-size="9" font-weight="400" text-anchor="start" fill="#333">CoA ligase/synthetase</text>
<rect x="824" y="176" width="16" height="12" fill="#6a3d9a" stroke="#555" stroke-width="0.6"/>
<text x="846.0" y="186.0" font-family="Arial, Helvetica, sans-serif" font-size="9" font-weight="400" text-anchor="start" fill="#333">Carboxylase</text>
<rect x="1224" y="176" width="16" height="12" fill="#33a02c" stroke="#555" stroke-width="0.6"/>
<text x="1246.0" y="186.0" font-family="Arial, Helvetica, sans-serif" font-size="9" font-weight="400" text-anchor="start" fill="#333">Dehydrogenase/oxidoreductase</text>
<rect x="24" y="198" width="16" height="12" fill="#ff7f00" stroke="#555" stroke-width="0.6"/>
<text x="46.0" y="208.0" font-family="Arial, Helvetica, sans-serif" font-size="9" font-weight="400" text-anchor="start" fill="#333">Hydratase/dehydratase/isomerase</text>
<rect x="424" y="198" width="16" height="12" fill="#b15928" stroke="#555" stroke-width="0.6"/>
<text x="446.0" y="208.0" font-family="Arial, Helvetica, sans-serif" font-size="9" font-weight="400" text-anchor="start" fill="#333">Hydrolase/decarboxylase/lyase</text>
<rect x="824" y="198" width="16" height="12" fill="#a6cee3" stroke="#555" stroke-width="0.6"/>
<text x="846.0" y="208.0" font-family="Arial, Helvetica, sans-serif" font-size="9" font-weight="400" text-anchor="start" fill="#333">Thiolase/transferase</text>
<rect x="1224" y="198" width="16" height="12" fill="#cab2d6" stroke="#555" stroke-width="0.6"/>
<text x="1246.0" y="208.0" font-family="Arial, Helvetica, sans-serif" font-size="9" font-weight="400" text-anchor="start" fill="#333">Transport/efflux</text>
<rect x="24" y="220" width="16" height="12" fill="#fdbf6f" stroke="#555" stroke-width="0.6"/>
<text x="46.0" y="230.0" font-family="Arial, Helvetica, sans-serif" font-size="9" font-weight="400" text-anchor="start" fill="#333">Regulator</text>
<rect x="424" y="220" width="16" height="12" fill="#fb9a99" stroke="#555" stroke-width="0.6"/>
<text x="446.0" y="230.0" font-family="Arial, Helvetica, sans-serif" font-size="9" font-weight="400" text-anchor="start" fill="#333">Electron transfer/redox</text>
<rect x="824" y="220" width="16" height="12" fill="#b2df8a" stroke="#555" stroke-width="0.6"/>
<text x="846.0" y="230.0" font-family="Arial, Helvetica, sans-serif" font-size="9" font-weight="400" text-anchor="start" fill="#333">Mobile/stress/accessory</text>
<rect x="1224" y="220" width="16" height="12" fill="#d9d9d9" stroke="#555" stroke-width="0.6"/>
<text x="1246.0" y="230.0" font-family="Arial, Helvetica, sans-serif" font-size="9" font-weight="400" text-anchor="start" fill="#333">Hypothetical/accessory</text>
<rect x="24" y="242" width="16" height="12" fill="#cccccc" stroke="#555" stroke-width="0.6"/>
<text x="46.0" y="252.0" font-family="Arial, Helvetica, sans-serif" font-size="9" font-weight="400" text-anchor="start" fill="#333">Accessory/other</text>
</svg>
