<svg xmlns="http://www.w3.org/2000/svg" width="1700" height="274" viewBox="0 0 1700 274">
<rect width="100%" height="100%" fill="#f8f8f6"/>
<rect x="18" y="6" width="1664" height="118" rx="6" fill="#ffffff" stroke="#dddddd"/>
<rect x="18" y="6" width="7" height="118" fill="#b2182b"/>
<text x="32.0" y="24.0" font-family="Arial, Helvetica, sans-serif" font-size="16" font-weight="700" text-anchor="start" fill="#222">GCF_000475395.1_panelcluster_14491</text>
<text x="32.0" y="42.0" font-family="Arial, Helvetica, sans-serif" font-size="11" font-weight="700" text-anchor="start" fill="#b2182b">GCF_000475395.1 | c_000000000034 | Multi-hit cluster (&gt;=2 independent panel gene hits)</text>
<text x="32.0" y="58.0" font-family="Arial, Helvetica, sans-serif" font-size="9" font-weight="400" text-anchor="start" fill="#444">Panel genes: chnE; paaA; paaB; paaC; paaD; paaE; paaG; paaI; paaK;</text>
<text x="32.0" y="70.0" font-family="Arial, Helvetica, sans-serif" font-size="9" font-weight="400" text-anchor="start" fill="#444">paaZ</text>
<text x="32.0" y="82.0" font-family="Arial, Helvetica, sans-serif" font-size="9" font-weight="400" text-anchor="start" fill="#444">Panel categories: Alkanes; Phenylacetate</text>
<line x1="452" y1="97.0" x2="1664" y2="97.0" stroke="#d0d0d0"/>
<polygon points="452.0,86.0 498.7,86.0 516.7,97.0 498.7,108.0 452.0,108.0" fill="#33a02c" stroke="#111" stroke-width="2.2"><title>CMKBNJLK_04710 | gabD_2 | Dehydrogenase/oxidoreductase | Succinate-semialdehyde dehydrogenase [NADP(+)] GabD | PANEL HIT: chnE (Alkanes / Terminal/biterminal oxidation) | pident=34.437000 qcovs=98.000000</title></polygon>
<text x="484.3" y="121.0" font-family="Arial, Helvetica, sans-serif" font-size="9" font-weight="700" text-anchor="end" transform="rotate(-45 484.3 121.0)" fill="#111">gabD_2 (chnE)</text>
<polygon points="518.1,86.0 559.2,86.0 577.2,97.0 559.2,108.0 518.1,108.0" fill="#cccccc" stroke="#888" stroke-width="0.8"><title>CMKBNJLK_04711 | spuC_2 | Accessory/other | Putrescine--pyruvate aminotransferase</title></polygon>
<text x="547.6" y="121.0" font-family="Arial, Helvetica, sans-serif" font-size="9" font-weight="400" text-anchor="end" transform="rotate(-45 547.6 121.0)" fill="#555">spuC_2</text>
<polygon points="676.3,86.0 598.5,86.0 580.5,97.0 598.5,108.0 676.3,108.0" fill="#cccccc" stroke="#888" stroke-width="0.8"><title>CMKBNJLK_04712 | btuD_18 | Accessory/other | Vitamin B12 import ATP-binding protein BtuD</title></polygon>
<text x="628.4" y="121.0" font-family="Arial, Helvetica, sans-serif" font-size="9" font-weight="400" text-anchor="end" transform="rotate(-45 628.4 121.0)" fill="#555">btuD_18</text>
<polygon points="745.5,86.0 694.1,86.0 676.1,97.0 694.1,108.0 745.5,108.0" fill="#cccccc" stroke="#888" stroke-width="0.8"><title>CMKBNJLK_04713 | hlyB_3 | Accessory/other | Alpha-hemolysin translocation ATP-binding protein HlyB</title></polygon>
<text x="710.8" y="121.0" font-family="Arial, Helvetica, sans-serif" font-size="9" font-weight="400" text-anchor="end" transform="rotate(-45 710.8 121.0)" fill="#555">hlyB_3</text>
<polygon points="756.3,86.0 1181.1,86.0 1199.1,97.0 1181.1,108.0 756.3,108.0" fill="#d9d9d9" stroke="#888" stroke-width="0.8"><title>CMKBNJLK_04714 | CMKBNJLK_04714 | Hypothetical/accessory | hypothetical protein</title></polygon>
<text x="977.7" y="121.0" font-family="Arial, Helvetica, sans-serif" font-size="9" font-weight="400" text-anchor="end" transform="rotate(-45 977.7 121.0)" fill="#555">CMKBNJLK_04714</text>
<polygon points="1261.0,86.0 1221.9,86.0 1203.9,97.0 1221.9,108.0 1261.0,108.0" fill="#cccccc" stroke="#888" stroke-width="0.8"><title>CMKBNJLK_04715 | hlyD_2 | Accessory/other | Hemolysin secretion protein D, chromosomal</title></polygon>
<text x="1232.4" y="121.0" font-family="Arial, Helvetica, sans-serif" font-size="9" font-weight="400" text-anchor="end" transform="rotate(-45 1232.4 121.0)" fill="#555">hlyD_2</text>
<polygon points="1272.0,86.0 1295.0,86.0 1306.4,97.0 1295.0,108.0 1272.0,108.0" fill="#ff7f00" stroke="#111" stroke-width="2.2"><title>CMKBNJLK_04716 | paaG_1 | Hydratase/dehydratase/isomerase | 1,2-epoxyphenylacetyl-CoA isomerase | PANEL HIT: paaG (Phenylacetate / Phenylacetate) | pident=58.301000 qcovs=99.000000</title></polygon>
<text x="1289.2" y="121.0" font-family="Arial, Helvetica, sans-serif" font-size="9" font-weight="700" text-anchor="end" transform="rotate(-45 1289.2 121.0)" fill="#111">paaG_1 (paaG)</text>
<polygon points="1306.9,86.0 1318.3,86.0 1325.3,97.0 1318.3,108.0 1306.9,108.0" fill="#b15928" stroke="#111" stroke-width="2.2"><title>CMKBNJLK_04717 | paaI | Hydrolase/decarboxylase/lyase | Acyl-coenzyme A thioesterase PaaI | PANEL HIT: paaI (Phenylacetate / Phenylacetate) | pident=41.985000 qcovs=94.000000</title></polygon>
<text x="1316.1" y="121.0" font-family="Arial, Helvetica, sans-serif" font-size="9" font-weight="700" text-anchor="end" transform="rotate(-45 1316.1 121.0)" fill="#111">paaI (paaI)</text>
<polygon points="1326.9,86.0 1365.6,86.0 1383.6,97.0 1365.6,108.0 1326.9,108.0" fill="#1f78b4" stroke="#111" stroke-width="2.2"><title>CMKBNJLK_04718 | paaK | CoA ligase/synthetase | Phenylacetate-coenzyme A ligase | PANEL HIT: paaK (Phenylacetate / Phenylacetate) | pident=64.085000 qcovs=97.000000</title></polygon>
<text x="1355.3" y="121.0" font-family="Arial, Helvetica, sans-serif" font-size="9" font-weight="700" text-anchor="end" transform="rotate(-45 1355.3 121.0)" fill="#111">paaK (paaK)</text>
<polygon points="1477.8,86.0 1407.3,86.0 1389.3,97.0 1407.3,108.0 1477.8,108.0" fill="#b15928" stroke="#111" stroke-width="2.2"><title>CMKBNJLK_04719 | paaZ_2 | Hydrolase/decarboxylase/lyase | Bifunctional protein PaaZ | PANEL HIT: paaZ (Phenylacetate / Phenylacetate) | pident=53.561000 qcovs=99.000000</title></polygon>
<text x="1433.6" y="121.0" font-family="Arial, Helvetica, sans-serif" font-size="9" font-weight="700" text-anchor="end" transform="rotate(-45 1433.6 121.0)" fill="#111">paaZ_2 (paaZ)</text>
<polygon points="1525.6,86.0 1494.5,86.0 1479.2,97.0 1494.5,108.0 1525.6,108.0" fill="#cccccc" stroke="#111" stroke-width="2.2"><title>CMKBNJLK_04720 | paaE | Accessory/other | 1,2-phenylacetyl-CoA epoxidase, subunit E | PANEL HIT: paaE (Phenylacetate / Phenylacetate) | pident=42.340000 qcovs=99.000000</title></polygon>
<text x="1502.4" y="121.0" font-family="Arial, Helvetica, sans-serif" font-size="9" font-weight="700" text-anchor="end" transform="rotate(-45 1502.4 121.0)" fill="#111">paaE (paaE)</text>
<polygon points="1552.8,86.0 1538.3,86.0 1531.1,97.0 1538.3,108.0 1552.8,108.0" fill="#cccccc" stroke="#111" stroke-width="2.2"><title>CMKBNJLK_04721 | paaD | Accessory/other | Putative 1,2-phenylacetyl-CoA epoxidase, subunit D | PANEL HIT: paaD (Phenylacetate / Phenylacetate) | pident=47.239000 qcovs=89.000000</title></polygon>
<text x="1541.9" y="121.0" font-family="Arial, Helvetica, sans-serif" font-size="9" font-weight="700" text-anchor="end" transform="rotate(-45 1541.9 121.0)" fill="#111">paaD (paaD)</text>
<polygon points="1587.0,86.0 1564.5,86.0 1553.5,97.0 1564.5,108.0 1587.0,108.0" fill="#cccccc" stroke="#111" stroke-width="2.2"><title>CMKBNJLK_04722 | paaC | Accessory/other | 1,2-phenylacetyl-CoA epoxidase, subunit C | PANEL HIT: paaC (Phenylacetate / Phenylacetate) | pident=45.749000 qcovs=98.000000</title></polygon>
<text x="1570.3" y="121.0" font-family="Arial, Helvetica, sans-serif" font-size="9" font-weight="700" text-anchor="end" transform="rotate(-45 1570.3 121.0)" fill="#111">paaC (paaC)</text>
<polygon points="1605.0,86.0 1594.0,86.0 1587.0,97.0 1594.0,108.0 1605.0,108.0" fill="#cccccc" stroke="#111" stroke-width="2.2"><title>CMKBNJLK_04723 | paaB | Accessory/other | 1,2-phenylacetyl-CoA epoxidase, subunit B | PANEL HIT: paaB (Phenylacetate / Phenylacetate) | pident=76.596000 qcovs=100.000000</title></polygon>
<text x="1596.0" y="121.0" font-family="Arial, Helvetica, sans-serif" font-size="9" font-weight="700" text-anchor="end" transform="rotate(-45 1596.0 121.0)" fill="#111">paaB (paaB)</text>
<polygon points="1620.9,86.0 1607.0,86.0 1600.0,97.0 1607.0,108.0 1620.9,108.0" fill="#d9d9d9" stroke="#888" stroke-width="0.8"><title>CMKBNJLK_04724 | CMKBNJLK_04724 | Hypothetical/accessory | hypothetical protein</title></polygon>
<text x="1610.4" y="121.0" font-family="Arial, Helvetica, sans-serif" font-size="9" font-weight="400" text-anchor="end" transform="rotate(-45 1610.4 121.0)" fill="#555">CMKBNJLK_04724</text>
<polygon points="1664.0,86.0 1635.3,86.0 1621.1,97.0 1635.3,108.0 1664.0,108.0" fill="#cccccc" stroke="#111" stroke-width="2.2"><title>CMKBNJLK_04725 | paaA | Accessory/other | 1,2-phenylacetyl-CoA epoxidase, subunit A | PANEL HIT: paaA (Phenylacetate / Phenylacetate) | pident=37.895000 qcovs=91.000000</title></polygon>
<text x="1642.5" y="121.0" font-family="Arial, Helvetica, sans-serif" font-size="9" font-weight="700" text-anchor="end" transform="rotate(-45 1642.5 121.0)" fill="#111">paaA (paaA)</text>
<text x="452.0" y="34.0" font-family="Arial, Helvetica, sans-serif" font-size="9" font-weight="400" text-anchor="start" fill="#666">505,314 bp</text>
<text x="1664.0" y="34.0" font-family="Arial, Helvetica, sans-serif" font-size="9" font-weight="400" text-anchor="end" fill="#666">533,361 bp</text>
<text x="24.0" y="166.0" font-family="Arial, Helvetica, sans-serif" font-size="10" font-weight="700" text-anchor="start" fill="#222">Legend (bold outline = reference-panel seed hit; thin outline = expanded genomic context)</text>
<rect x="24" y="176" width="16" height="12" fill="#d73027" stroke="#555" stroke-width="0.6"/>
<text x="46.0" y="186.0" font-family="Arial, Helvetica, sans-serif" font-size="9" font-weight="400" text-anchor="start" fill="#333">Oxygenase/dioxygenase</text>
<rect x="424" y="176" width="16" height="12" fill="#1f78b4" stroke="#555" stroke-width="0.6"/>
<text x="446.0" y="186.0" font-family="Arial, Helvetica, sans-serif" font-size="9" font-weight="400" text-anchor="start" fill="#333">CoA ligase/synthetase</text>
<rect x="824" y="176" width="16" height="12" fill="#6a3d9a" stroke="#555" stroke-width="0.6"/>
<text x="846.0" y="186.0" font-family="Arial, Helvetica, sans-serif" font-size="9" font-weight="400" text-anchor="start" fill="#333">Carboxylase</text>
<rect x="1224" y="176" width="16" height="12" fill="#33a02c" stroke="#555" stroke-width="0.6"/>
<text x="1246.0" y="186.0" font-family="Arial, Helvetica, sans-serif" font-size="9" font-weight="400" text-anchor="start" fill="#333">Dehydrogenase/oxidoreductase</text>
<rect x="24" y="198" width="16" height="12" fill="#ff7f00" stroke="#555" stroke-width="0.6"/>
<text x="46.0" y="208.0" font-family="Arial, Helvetica, sans-serif" font-size="9" font-weight="400" text-anchor="start" fill="#333">Hydratase/dehydratase/isomerase</text>
<rect x="424" y="198" width="16" height="12" fill="#b15928" stroke="#555" stroke-width="0.6"/>
<text x="446.0" y="208.0" font-family="Arial, Helvetica, sans-serif" font-size="9" font-weight="400" text-anchor="start" fill="#333">Hydrolase/decarboxylase/lyase</text>
<rect x="824" y="198" width="16" height="12" fill="#a6cee3" stroke="#555" stroke-width="0.6"/>
<text x="846.0" y="208.0" font-family="Arial, Helvetica, sans-serif" font-size="9" font-weight="400" text-anchor="start" fill="#333">Thiolase/transferase</text>
<rect x="1224" y="198" width="16" height="12" fill="#cab2d6" stroke="#555" stroke-width="0.6"/>
<text x="1246.0" y="208.0" font-family="Arial, Helvetica, sans-serif" font-size="9" font-weight="400" text-anchor="start" fill="#333">Transport/efflux</text>
<rect x="24" y="220" width="16" height="12" fill="#fdbf6f" stroke="#555" stroke-width="0.6"/>
<text x="46.0" y="230.0" font-family="Arial, Helvetica, sans-serif" font-size="9" font-weight="400" text-anchor="start" fill="#333">Regulator</text>
<rect x="424" y="220" width="16" height="12" fill="#fb9a99" stroke="#555" stroke-width="0.6"/>
<text x="446.0" y="230.0" font-family="Arial, Helvetica, sans-serif" font-size="9" font-weight="400" text-anchor="start" fill="#333">Electron transfer/redox</text>
<rect x="824" y="220" width="16" height="12" fill="#b2df8a" stroke="#555" stroke-width="0.6"/>
<text x="846.0" y="230.0" font-family="Arial, Helvetica, sans-serif" font-size="9" font-weight="400" text-anchor="start" fill="#333">Mobile/stress/accessory</text>
<rect x="1224" y="220" width="16" height="12" fill="#d9d9d9" stroke="#555" stroke-width="0.6"/>
<text x="1246.0" y="230.0" font-family="Arial, Helvetica, sans-serif" font-size="9" font-weight="400" text-anchor="start" fill="#333">Hypothetical/accessory</text>
<rect x="24" y="242" width="16" height="12" fill="#cccccc" stroke="#555" stroke-width="0.6"/>
<text x="46.0" y="252.0" font-family="Arial, Helvetica, sans-serif" font-size="9" font-weight="400" text-anchor="start" fill="#333">Accessory/other</text>
</svg>
