<svg xmlns="http://www.w3.org/2000/svg" width="1700" height="274" viewBox="0 0 1700 274">
<rect width="100%" height="100%" fill="#f8f8f6"/>
<rect x="18" y="6" width="1664" height="118" rx="6" fill="#ffffff" stroke="#dddddd"/>
<rect x="18" y="6" width="7" height="118" fill="#b2182b"/>
<text x="32.0" y="24.0" font-family="Arial, Helvetica, sans-serif" font-size="16" font-weight="700" text-anchor="start" fill="#222">GCF_016584445.1_panelcluster_15246</text>
<text x="32.0" y="42.0" font-family="Arial, Helvetica, sans-serif" font-size="11" font-weight="700" text-anchor="start" fill="#b2182b">GCF_016584445.1 | c_000000000001 | Multi-hit cluster (&gt;=2 independent panel gene hits)</text>
<text x="32.0" y="58.0" font-family="Arial, Helvetica, sans-serif" font-size="9" font-weight="400" text-anchor="start" fill="#444">Panel genes: AAE3; aliB; chqB; echA1; est; pegC; pimC/aabA</text>
<text x="32.0" y="70.0" font-family="Arial, Helvetica, sans-serif" font-size="9" font-weight="400" text-anchor="start" fill="#444">Panel categories: Beta-oxidation; Cyclohexanecarboxylate;</text>
<text x="32.0" y="82.0" font-family="Arial, Helvetica, sans-serif" font-size="9" font-weight="400" text-anchor="start" fill="#444">Hydroxyquinol; Oxalate; Plastics</text>
<line x1="452" y1="97.0" x2="1664" y2="97.0" stroke="#d0d0d0"/>
<polygon points="452.0,86.0 493.3,86.0 511.3,97.0 493.3,108.0 452.0,108.0" fill="#33a02c" stroke="#111" stroke-width="2.2"><title>OBGEGAOL_02191 | mmgC_4 | Dehydrogenase/oxidoreductase | Acyl-CoA dehydrogenase | PANEL HIT: aliB (Beta-oxidation / Beta-oxidation) | pident=34.933000 qcovs=97.000000</title></polygon>
<text x="481.6" y="121.0" font-family="Arial, Helvetica, sans-serif" font-size="9" font-weight="700" text-anchor="end" transform="rotate(-45 481.6 121.0)" fill="#111">mmgC_4 (aliB)</text>
<polygon points="519.0,86.0 560.5,86.0 578.5,97.0 560.5,108.0 519.0,108.0" fill="#33a02c" stroke="#111" stroke-width="2.2"><title>OBGEGAOL_02192 | mmgC_5 | Dehydrogenase/oxidoreductase | Acyl-CoA dehydrogenase | PANEL HIT: pimC/aabA (Cyclohexanecarboxylate / Cyclohexanecarboxylate) | pident=31.092000 qcovs=88.000000</title></polygon>
<text x="548.8" y="121.0" font-family="Arial, Helvetica, sans-serif" font-size="9" font-weight="700" text-anchor="end" transform="rotate(-45 548.8 121.0)" fill="#111">mmgC_5 (pimC/aabA)</text>
<polygon points="591.0,86.0 613.5,86.0 624.6,97.0 613.5,108.0 591.0,108.0" fill="#d9d9d9" stroke="#888" stroke-width="0.8"><title>OBGEGAOL_02193 | OBGEGAOL_02193 | Hypothetical/accessory | hypothetical protein</title></polygon>
<text x="607.8" y="121.0" font-family="Arial, Helvetica, sans-serif" font-size="9" font-weight="400" text-anchor="end" transform="rotate(-45 607.8 121.0)" fill="#555">OBGEGAOL_02193</text>
<polygon points="633.0,86.0 661.5,86.0 675.6,97.0 661.5,108.0 633.0,108.0" fill="#d9d9d9" stroke="#888" stroke-width="0.8"><title>OBGEGAOL_02194 | OBGEGAOL_02194 | Hypothetical/accessory | hypothetical protein</title></polygon>
<text x="654.3" y="121.0" font-family="Arial, Helvetica, sans-serif" font-size="9" font-weight="400" text-anchor="end" transform="rotate(-45 654.3 121.0)" fill="#555">OBGEGAOL_02194</text>
<polygon points="681.8,86.0 711.7,86.0 726.5,97.0 711.7,108.0 681.8,108.0" fill="#cccccc" stroke="#888" stroke-width="0.8"><title>OBGEGAOL_02195 | kce | Accessory/other | 3-keto-5-aminohexanoate cleavage enzyme</title></polygon>
<text x="704.1" y="121.0" font-family="Arial, Helvetica, sans-serif" font-size="9" font-weight="400" text-anchor="end" transform="rotate(-45 704.1 121.0)" fill="#555">kce</text>
<polygon points="735.1,86.0 799.9,86.0 817.9,97.0 799.9,108.0 735.1,108.0" fill="#1f78b4" stroke="#888" stroke-width="0.8"><title>OBGEGAOL_02196 | lcfB_5 | CoA ligase/synthetase | Long-chain-fatty-acid--CoA ligase</title></polygon>
<text x="776.5" y="121.0" font-family="Arial, Helvetica, sans-serif" font-size="9" font-weight="400" text-anchor="end" transform="rotate(-45 776.5 121.0)" fill="#555">lcfB_5</text>
<polygon points="830.2,86.0 896.0,86.0 914.0,97.0 896.0,108.0 830.2,108.0" fill="#6a3d9a" stroke="#888" stroke-width="0.8"><title>OBGEGAOL_02197 | OBGEGAOL_02197 | Carboxylase | Methylmalonyl-CoA carboxyltransferase 12S subunit</title></polygon>
<text x="872.1" y="121.0" font-family="Arial, Helvetica, sans-serif" font-size="9" font-weight="400" text-anchor="end" transform="rotate(-45 872.1 121.0)" fill="#555">OBGEGAOL_02197</text>
<polygon points="914.5,86.0 998.1,86.0 1016.1,97.0 998.1,108.0 914.5,108.0" fill="#6a3d9a" stroke="#888" stroke-width="0.8"><title>OBGEGAOL_02198 | accA1_1 | Carboxylase | Acetyl-/propionyl-coenzyme A carboxylase alpha chain</title></polygon>
<text x="965.3" y="121.0" font-family="Arial, Helvetica, sans-serif" font-size="9" font-weight="400" text-anchor="end" transform="rotate(-45 965.3 121.0)" fill="#555">accA1_1</text>
<polygon points="1022.2,86.0 1049.2,86.0 1062.4,97.0 1049.2,108.0 1022.2,108.0" fill="#ff7f00" stroke="#111" stroke-width="2.2"><title>OBGEGAOL_02199 | dpgD_2 | Hydratase/dehydratase/isomerase | Enoyl-CoA-hydratase | PANEL HIT: echA1 (Beta-oxidation / Beta-oxidation) | pident=35.547000 qcovs=95.000000</title></polygon>
<text x="1042.3" y="121.0" font-family="Arial, Helvetica, sans-serif" font-size="9" font-weight="700" text-anchor="end" transform="rotate(-45 1042.3 121.0)" fill="#111">dpgD_2 (echA1)</text>
<polygon points="1071.5,86.0 1132.9,86.0 1150.9,97.0 1132.9,108.0 1071.5,108.0" fill="#1f78b4" stroke="#111" stroke-width="2.2"><title>OBGEGAOL_02200 | lcfB_6 | CoA ligase/synthetase | Long-chain-fatty-acid--CoA ligase | PANEL HIT: AAE3 (Oxalate / Oxalate) | pident=32.303000 qcovs=56.000000</title></polygon>
<text x="1111.2" y="121.0" font-family="Arial, Helvetica, sans-serif" font-size="9" font-weight="700" text-anchor="end" transform="rotate(-45 1111.2 121.0)" fill="#111">lcfB_6 (AAE3)</text>
<polygon points="1156.2,86.0 1212.8,86.0 1230.8,97.0 1212.8,108.0 1156.2,108.0" fill="#d9d9d9" stroke="#888" stroke-width="0.8"><title>OBGEGAOL_02201 | OBGEGAOL_02201 | Hypothetical/accessory | hypothetical protein</title></polygon>
<text x="1193.5" y="121.0" font-family="Arial, Helvetica, sans-serif" font-size="9" font-weight="400" text-anchor="end" transform="rotate(-45 1193.5 121.0)" fill="#555">OBGEGAOL_02201</text>
<polygon points="1301.1,86.0 1253.7,86.0 1235.7,97.0 1253.7,108.0 1301.1,108.0" fill="#cccccc" stroke="#111" stroke-width="2.2"><title>OBGEGAOL_02202 | OBGEGAOL_02202 | Accessory/other | putative protein | PANEL HIT: est (Plastics / PBAT) | pident=62.843000 qcovs=98.000000</title></polygon>
<text x="1268.4" y="121.0" font-family="Arial, Helvetica, sans-serif" font-size="9" font-weight="700" text-anchor="end" transform="rotate(-45 1268.4 121.0)" fill="#111">OBGEGAOL_02202 (est)</text>
<polygon points="1313.0,86.0 1344.3,86.0 1359.7,97.0 1344.3,108.0 1313.0,108.0" fill="#d73027" stroke="#111" stroke-width="2.2"><title>OBGEGAOL_02203 | chqB | Oxygenase/dioxygenase | Hydroxyquinol 1,2-dioxygenase | PANEL HIT: chqB (Hydroxyquinol / Hydroxyquinol) | pident=47.902000 qcovs=97.000000</title></polygon>
<text x="1336.4" y="121.0" font-family="Arial, Helvetica, sans-serif" font-size="9" font-weight="700" text-anchor="end" transform="rotate(-45 1336.4 121.0)" fill="#111">chqB (chqB)</text>
<polygon points="1360.7,86.0 1389.9,86.0 1404.3,97.0 1389.9,108.0 1360.7,108.0" fill="#33a02c" stroke="#888" stroke-width="0.8"><title>OBGEGAOL_02204 | OBGEGAOL_02204 | Dehydrogenase/oxidoreductase | putative oxidoreductase/MSMEI_2347</title></polygon>
<text x="1382.5" y="121.0" font-family="Arial, Helvetica, sans-serif" font-size="9" font-weight="400" text-anchor="end" transform="rotate(-45 1382.5 121.0)" fill="#555">OBGEGAOL_02204</text>
<polygon points="1414.0,86.0 1446.7,86.0 1462.8,97.0 1446.7,108.0 1414.0,108.0" fill="#cab2d6" stroke="#888" stroke-width="0.8"><title>OBGEGAOL_02205 | ribN_1 | Transport/efflux | Riboflavin transporter</title></polygon>
<text x="1438.4" y="121.0" font-family="Arial, Helvetica, sans-serif" font-size="9" font-weight="400" text-anchor="end" transform="rotate(-45 1438.4 121.0)" fill="#555">ribN_1</text>
<polygon points="1473.2,86.0 1559.5,86.0 1577.5,97.0 1559.5,108.0 1473.2,108.0" fill="#cccccc" stroke="#888" stroke-width="0.8"><title>OBGEGAOL_02206 | OBGEGAOL_02206 | Accessory/other | putative signaling protein</title></polygon>
<text x="1525.3" y="121.0" font-family="Arial, Helvetica, sans-serif" font-size="9" font-weight="400" text-anchor="end" transform="rotate(-45 1525.3 121.0)" fill="#555">OBGEGAOL_02206</text>
<polygon points="1590.2,86.0 1646.0,86.0 1664.0,97.0 1646.0,108.0 1590.2,108.0" fill="#33a02c" stroke="#111" stroke-width="2.2"><title>OBGEGAOL_02207 | ald | Dehydrogenase/oxidoreductase | 3-succinoylsemialdehyde-pyridine dehydrogenase | PANEL HIT: pegC (Plastics / PEG) | pident=51.844000 qcovs=99.000000</title></polygon>
<text x="1627.1" y="121.0" font-family="Arial, Helvetica, sans-serif" font-size="9" font-weight="700" text-anchor="end" transform="rotate(-45 1627.1 121.0)" fill="#111">ald (pegC)</text>
<text x="452.0" y="34.0" font-family="Arial, Helvetica, sans-serif" font-size="9" font-weight="400" text-anchor="start" fill="#666">2,390,440 bp</text>
<text x="1664.0" y="34.0" font-family="Arial, Helvetica, sans-serif" font-size="9" font-weight="400" text-anchor="end" fill="#666">2,413,933 bp</text>
<text x="24.0" y="166.0" font-family="Arial, Helvetica, sans-serif" font-size="10" font-weight="700" text-anchor="start" fill="#222">Legend (bold outline = reference-panel seed hit; thin outline = expanded genomic context)</text>
<rect x="24" y="176" width="16" height="12" fill="#d73027" stroke="#555" stroke-width="0.6"/>
<text x="46.0" y="186.0" font-family="Arial, Helvetica, sans-serif" font-size="9" font-weight="400" text-anchor="start" fill="#333">Oxygenase/dioxygenase</text>
<rect x="424" y="176" width="16" height="12" fill="#1f78b4" stroke="#555" stroke-width="0.6"/>
<text x="446.0" y="186.0" font-family="Arial, Helvetica, sans-serif" font-size="9" font-weight="400" text-anchor="start" fill="#333">CoA ligase/synthetase</text>
<rect x="824" y="176" width="16" height="12" fill="#6a3d9a" stroke="#555" stroke-width="0.6"/>
<text x="846.0" y="186.0" font-family="Arial, Helvetica, sans-serif" font-size="9" font-weight="400" text-anchor="start" fill="#333">Carboxylase</text>
<rect x="1224" y="176" width="16" height="12" fill="#33a02c" stroke="#555" stroke-width="0.6"/>
<text x="1246.0" y="186.0" font-family="Arial, Helvetica, sans-serif" font-size="9" font-weight="400" text-anchor="start" fill="#333">Dehydrogenase/oxidoreductase</text>
<rect x="24" y="198" width="16" height="12" fill="#ff7f00" stroke="#555" stroke-width="0.6"/>
<text x="46.0" y="208.0" font-family="Arial, Helvetica, sans-serif" font-size="9" font-weight="400" text-anchor="start" fill="#333">Hydratase/dehydratase/isomerase</text>
<rect x="424" y="198" width="16" height="12" fill="#b15928" stroke="#555" stroke-width="0.6"/>
<text x="446.0" y="208.0" font-family="Arial, Helvetica, sans-serif" font-size="9" font-weight="400" text-anchor="start" fill="#333">Hydrolase/decarboxylase/lyase</text>
<rect x="824" y="198" width="16" height="12" fill="#a6cee3" stroke="#555" stroke-width="0.6"/>
<text x="846.0" y="208.0" font-family="Arial, Helvetica, sans-serif" font-size="9" font-weight="400" text-anchor="start" fill="#333">Thiolase/transferase</text>
<rect x="1224" y="198" width="16" height="12" fill="#cab2d6" stroke="#555" stroke-width="0.6"/>
<text x="1246.0" y="208.0" font-family="Arial, Helvetica, sans-serif" font-size="9" font-weight="400" text-anchor="start" fill="#333">Transport/efflux</text>
<rect x="24" y="220" width="16" height="12" fill="#fdbf6f" stroke="#555" stroke-width="0.6"/>
<text x="46.0" y="230.0" font-family="Arial, Helvetica, sans-serif" font-size="9" font-weight="400" text-anchor="start" fill="#333">Regulator</text>
<rect x="424" y="220" width="16" height="12" fill="#fb9a99" stroke="#555" stroke-width="0.6"/>
<text x="446.0" y="230.0" font-family="Arial, Helvetica, sans-serif" font-size="9" font-weight="400" text-anchor="start" fill="#333">Electron transfer/redox</text>
<rect x="824" y="220" width="16" height="12" fill="#b2df8a" stroke="#555" stroke-width="0.6"/>
<text x="846.0" y="230.0" font-family="Arial, Helvetica, sans-serif" font-size="9" font-weight="400" text-anchor="start" fill="#333">Mobile/stress/accessory</text>
<rect x="1224" y="220" width="16" height="12" fill="#d9d9d9" stroke="#555" stroke-width="0.6"/>
<text x="1246.0" y="230.0" font-family="Arial, Helvetica, sans-serif" font-size="9" font-weight="400" text-anchor="start" fill="#333">Hypothetical/accessory</text>
<rect x="24" y="242" width="16" height="12" fill="#cccccc" stroke="#555" stroke-width="0.6"/>
<text x="46.0" y="252.0" font-family="Arial, Helvetica, sans-serif" font-size="9" font-weight="400" text-anchor="start" fill="#333">Accessory/other</text>
</svg>
