<svg xmlns="http://www.w3.org/2000/svg" width="1700" height="274" viewBox="0 0 1700 274">
<rect width="100%" height="100%" fill="#f8f8f6"/>
<rect x="18" y="6" width="1664" height="118" rx="6" fill="#ffffff" stroke="#dddddd"/>
<rect x="18" y="6" width="7" height="118" fill="#b2182b"/>
<text x="32.0" y="24.0" font-family="Arial, Helvetica, sans-serif" font-size="16" font-weight="700" text-anchor="start" fill="#222">GROW_67_consensus_panelcluster_17301</text>
<text x="32.0" y="42.0" font-family="Arial, Helvetica, sans-serif" font-size="11" font-weight="700" text-anchor="start" fill="#b2182b">GROW_67_consensus | 1 | Multi-hit cluster (&gt;=2 independent panel gene hits)</text>
<text x="32.0" y="58.0" font-family="Arial, Helvetica, sans-serif" font-size="9" font-weight="400" text-anchor="start" fill="#444">Panel genes: acdB; bphD; galT; mhpD; mhpF; nagF; nylB; opdK; pcaK;</text>
<text x="32.0" y="70.0" font-family="Arial, Helvetica, sans-serif" font-size="9" font-weight="400" text-anchor="start" fill="#444">pht2; xylC; xylK</text>
<text x="32.0" y="82.0" font-family="Arial, Helvetica, sans-serif" font-size="9" font-weight="400" text-anchor="start" fill="#444">Panel categories: Aromatics; Beta-oxidation; Catechol-meta; Gallate;</text>
<text x="32.0" y="94.0" font-family="Arial, Helvetica, sans-serif" font-size="9" font-weight="400" text-anchor="start" fill="#444">Naphthalene; Plastics; Transportation</text>
<line x1="452" y1="97.0" x2="1664" y2="97.0" stroke="#d0d0d0"/>
<polygon points="452.0,86.0 479.2,86.0 492.6,97.0 479.2,108.0 452.0,108.0" fill="#b15928" stroke="#111" stroke-width="2.2"><title>COLLAGROW67CONSE_02191 | nylB&#x27; | Hydrolase/decarboxylase/lyase | 6-aminohexanoate-dimer hydrolase | PANEL HIT: nylB (Plastics / Nylon) | pident=35.215000 qcovs=91.000000</title></polygon>
<text x="472.3" y="121.0" font-family="Arial, Helvetica, sans-serif" font-size="9" font-weight="700" text-anchor="end" transform="rotate(-45 472.3 121.0)" fill="#111">nylB&#x27; (nylB)</text>
<polygon points="496.3,86.0 525.1,86.0 539.2,97.0 525.1,108.0 496.3,108.0" fill="#d9d9d9" stroke="#888" stroke-width="0.8"><title>COLLAGROW67CONSE_02192 | COLLAGROW67CONSE_02192 | Hypothetical/accessory | hypothetical protein</title></polygon>
<text x="517.8" y="121.0" font-family="Arial, Helvetica, sans-serif" font-size="9" font-weight="400" text-anchor="end" transform="rotate(-45 517.8 121.0)" fill="#555">COLLAGROW67CONSE_02192</text>
<polygon points="540.5,86.0 564.3,86.0 576.0,97.0 564.3,108.0 540.5,108.0" fill="#cccccc" stroke="#888" stroke-width="0.8"><title>COLLAGROW67CONSE_02193 | spuE_1 | Accessory/other | Spermidine-binding periplasmic protein SpuE</title></polygon>
<text x="558.3" y="121.0" font-family="Arial, Helvetica, sans-serif" font-size="9" font-weight="400" text-anchor="end" transform="rotate(-45 558.3 121.0)" fill="#555">spuE_1</text>
<polygon points="596.5,86.0 583.8,86.0 576.8,97.0 583.8,108.0 596.5,108.0" fill="#fdbf6f" stroke="#888" stroke-width="0.8"><title>COLLAGROW67CONSE_02194 | betI_1 | Regulator | HTH-type transcriptional regulator BetI</title></polygon>
<text x="586.6" y="121.0" font-family="Arial, Helvetica, sans-serif" font-size="9" font-weight="400" text-anchor="end" transform="rotate(-45 586.6 121.0)" fill="#555">betI_1</text>
<polygon points="656.5,86.0 617.6,86.0 599.6,97.0 617.6,108.0 656.5,108.0" fill="#fdbf6f" stroke="#888" stroke-width="0.8"><title>COLLAGROW67CONSE_02195 | mopR_1 | Regulator | Phenol regulator MopR</title></polygon>
<text x="628.1" y="121.0" font-family="Arial, Helvetica, sans-serif" font-size="9" font-weight="400" text-anchor="end" transform="rotate(-45 628.1 121.0)" fill="#555">mopR_1</text>
<polygon points="665.2,86.0 697.0,86.0 712.6,97.0 697.0,108.0 665.2,108.0" fill="#33a02c" stroke="#111" stroke-width="2.2"><title>COLLAGROW67CONSE_02196 | xylC | Dehydrogenase/oxidoreductase | Benzaldehyde dehydrogenase [NAD(+)] | PANEL HIT: xylC (Aromatics / Toluene) | pident=48.734000 qcovs=97.000000</title></polygon>
<text x="688.9" y="121.0" font-family="Arial, Helvetica, sans-serif" font-size="9" font-weight="700" text-anchor="end" transform="rotate(-45 688.9 121.0)" fill="#111">xylC (xylC)</text>
<polygon points="714.4,86.0 731.0,86.0 739.1,97.0 731.0,108.0 714.4,108.0" fill="#33a02c" stroke="#888" stroke-width="0.8"><title>COLLAGROW67CONSE_02197 | calA | Dehydrogenase/oxidoreductase | Coniferyl-alcohol dehydrogenase</title></polygon>
<text x="726.8" y="121.0" font-family="Arial, Helvetica, sans-serif" font-size="9" font-weight="400" text-anchor="end" transform="rotate(-45 726.8 121.0)" fill="#555">calA</text>
<polygon points="741.7,86.0 762.1,86.0 772.1,97.0 762.1,108.0 741.7,108.0" fill="#d9d9d9" stroke="#888" stroke-width="0.8"><title>COLLAGROW67CONSE_02198 | COLLAGROW67CONSE_02198 | Hypothetical/accessory | hypothetical protein</title></polygon>
<text x="756.9" y="121.0" font-family="Arial, Helvetica, sans-serif" font-size="9" font-weight="400" text-anchor="end" transform="rotate(-45 756.9 121.0)" fill="#555">COLLAGROW67CONSE_02198</text>
<polygon points="811.5,86.0 785.1,86.0 772.0,97.0 785.1,108.0 811.5,108.0" fill="#cab2d6" stroke="#111" stroke-width="2.2"><title>COLLAGROW67CONSE_02199 | mhpT_1 | Transport/efflux | 3-(3-hydroxy-phenyl)propionate transporter | PANEL HIT: galT (Gallate / Gallate) | pident=38.298000 qcovs=83.000000</title></polygon>
<text x="791.8" y="121.0" font-family="Arial, Helvetica, sans-serif" font-size="9" font-weight="700" text-anchor="end" transform="rotate(-45 791.8 121.0)" fill="#111">mhpT_1 (galT)</text>
<polygon points="821.5,86.0 850.1,86.0 864.1,97.0 850.1,108.0 821.5,108.0" fill="#cab2d6" stroke="#111" stroke-width="2.2"><title>COLLAGROW67CONSE_02200 | nicP_6 | Transport/efflux | Porin-like protein NicP | PANEL HIT: opdK (Transportation / Transportation) | pident=38.242000 qcovs=97.000000</title></polygon>
<text x="842.8" y="121.0" font-family="Arial, Helvetica, sans-serif" font-size="9" font-weight="700" text-anchor="end" transform="rotate(-45 842.8 121.0)" fill="#111">nicP_6 (opdK)</text>
<polygon points="882.2,86.0 871.2,86.0 864.2,97.0 871.2,108.0 882.2,108.0" fill="#fdbf6f" stroke="#888" stroke-width="0.8"><title>COLLAGROW67CONSE_02201 | slyA_2 | Regulator | Transcriptional regulator SlyA</title></polygon>
<text x="873.2" y="121.0" font-family="Arial, Helvetica, sans-serif" font-size="9" font-weight="400" text-anchor="end" transform="rotate(-45 873.2 121.0)" fill="#555">slyA_2</text>
<polygon points="886.8,86.0 904.7,86.0 913.5,97.0 904.7,108.0 886.8,108.0" fill="#ff7f00" stroke="#888" stroke-width="0.8"><title>COLLAGROW67CONSE_02202 | COLLAGROW67CONSE_02202 | Hydratase/dehydratase/isomerase | Hydroxycinnamoyl-CoA hydratase-lyase</title></polygon>
<text x="900.1" y="121.0" font-family="Arial, Helvetica, sans-serif" font-size="9" font-weight="400" text-anchor="end" transform="rotate(-45 900.1 121.0)" fill="#555">COLLAGROW67CONSE_02202</text>
<polygon points="916.9,86.0 948.1,86.0 963.5,97.0 948.1,108.0 916.9,108.0" fill="#33a02c" stroke="#111" stroke-width="2.2"><title>COLLAGROW67CONSE_02203 | vdh | Dehydrogenase/oxidoreductase | Vanillin dehydrogenase | PANEL HIT: nagF (Naphthalene / Naphthalene) | pident=49.689000 qcovs=100.000000</title></polygon>
<text x="940.2" y="121.0" font-family="Arial, Helvetica, sans-serif" font-size="9" font-weight="700" text-anchor="end" transform="rotate(-45 940.2 121.0)" fill="#111">vdh (nagF)</text>
<polygon points="965.5,86.0 1007.7,86.0 1025.7,97.0 1007.7,108.0 965.5,108.0" fill="#1f78b4" stroke="#888" stroke-width="0.8"><title>COLLAGROW67CONSE_02204 | menE_1 | CoA ligase/synthetase | 2-succinylbenzoate--CoA ligase</title></polygon>
<text x="995.6" y="121.0" font-family="Arial, Helvetica, sans-serif" font-size="9" font-weight="400" text-anchor="end" transform="rotate(-45 995.6 121.0)" fill="#555">menE_1</text>
<polygon points="1025.5,86.0 1052.3,86.0 1065.4,97.0 1052.3,108.0 1025.5,108.0" fill="#a6cee3" stroke="#888" stroke-width="0.8"><title>COLLAGROW67CONSE_02205 | thlA_1 | Thiolase/transferase | Acetyl-CoA acetyltransferase</title></polygon>
<text x="1045.5" y="121.0" font-family="Arial, Helvetica, sans-serif" font-size="9" font-weight="400" text-anchor="end" transform="rotate(-45 1045.5 121.0)" fill="#555">thlA_1</text>
<polygon points="1066.8,86.0 1105.1,86.0 1123.1,97.0 1105.1,108.0 1066.8,108.0" fill="#33a02c" stroke="#111" stroke-width="2.2"><title>COLLAGROW67CONSE_02206 | dmdC_3 | Dehydrogenase/oxidoreductase | 3-methylmercaptopropionyl-CoA dehydrogenase | PANEL HIT: acdB (Beta-oxidation / Beta-oxidation) | pident=44.021000 qcovs=96.000000</title></polygon>
<text x="1094.9" y="121.0" font-family="Arial, Helvetica, sans-serif" font-size="9" font-weight="700" text-anchor="end" transform="rotate(-45 1094.9 121.0)" fill="#111">dmdC_3 (acdB)</text>
<polygon points="1125.7,86.0 1141.1,86.0 1148.6,97.0 1141.1,108.0 1125.7,108.0" fill="#d9d9d9" stroke="#888" stroke-width="0.8"><title>COLLAGROW67CONSE_02207 | COLLAGROW67CONSE_02207 | Hypothetical/accessory | hypothetical protein</title></polygon>
<text x="1137.2" y="121.0" font-family="Arial, Helvetica, sans-serif" font-size="9" font-weight="400" text-anchor="end" transform="rotate(-45 1137.2 121.0)" fill="#555">COLLAGROW67CONSE_02207</text>
<polygon points="1179.3,86.0 1158.9,86.0 1148.8,97.0 1158.9,108.0 1179.3,108.0" fill="#d73027" stroke="#111" stroke-width="2.2"><title>COLLAGROW67CONSE_02208 | pht2 | Oxygenase/dioxygenase | Phthalate 4,5-dioxygenase oxygenase reductase subunit | PANEL HIT: pht2 (Aromatics / Phthalate) | pident=42.492000 qcovs=95.000000</title></polygon>
<text x="1164.1" y="121.0" font-family="Arial, Helvetica, sans-serif" font-size="9" font-weight="700" text-anchor="end" transform="rotate(-45 1164.1 121.0)" fill="#111">pht2 (pht2)</text>
<polygon points="1214.4,86.0 1191.5,86.0 1180.3,97.0 1191.5,108.0 1214.4,108.0" fill="#fb9a99" stroke="#888" stroke-width="0.8"><title>COLLAGROW67CONSE_02209 | tsaM1 | Electron transfer/redox | Toluene-4-sulfonate monooxygenase system iron-sulfur subunit TsaM1</title></polygon>
<text x="1197.3" y="121.0" font-family="Arial, Helvetica, sans-serif" font-size="9" font-weight="400" text-anchor="end" transform="rotate(-45 1197.3 121.0)" fill="#555">tsaM1</text>
<polygon points="1263.5,86.0 1236.1,86.0 1222.7,97.0 1236.1,108.0 1263.5,108.0" fill="#cab2d6" stroke="#111" stroke-width="2.2"><title>COLLAGROW67CONSE_02210 | nicP_7 | Transport/efflux | Porin-like protein NicP | PANEL HIT: opdK (Transportation / Transportation) | pident=36.893000 qcovs=95.000000</title></polygon>
<text x="1243.1" y="121.0" font-family="Arial, Helvetica, sans-serif" font-size="9" font-weight="700" text-anchor="end" transform="rotate(-45 1243.1 121.0)" fill="#111">nicP_7 (opdK)</text>
<polygon points="1304.6,86.0 1278.7,86.0 1265.9,97.0 1278.7,108.0 1304.6,108.0" fill="#cab2d6" stroke="#111" stroke-width="2.2"><title>COLLAGROW67CONSE_02211 | mhpT_2 | Transport/efflux | 3-(3-hydroxy-phenyl)propionate transporter | PANEL HIT: pcaK (Transportation / Transportation) | pident=34.975000 qcovs=90.000000</title></polygon>
<text x="1285.3" y="121.0" font-family="Arial, Helvetica, sans-serif" font-size="9" font-weight="700" text-anchor="end" transform="rotate(-45 1285.3 121.0)" fill="#111">mhpT_2 (pcaK)</text>
<polygon points="1339.8,86.0 1318.0,86.0 1307.3,97.0 1318.0,108.0 1339.8,108.0" fill="#b15928" stroke="#111" stroke-width="2.2"><title>COLLAGROW67CONSE_02212 | dmpG_1 | Hydrolase/decarboxylase/lyase | 4-hydroxy-2-oxovalerate aldolase | PANEL HIT: xylK (Catechol-meta / Catechol-meta) | pident=90.964000 qcovs=96.000000</title></polygon>
<text x="1323.5" y="121.0" font-family="Arial, Helvetica, sans-serif" font-size="9" font-weight="700" text-anchor="end" transform="rotate(-45 1323.5 121.0)" fill="#111">dmpG_1 (xylK)</text>
<polygon points="1370.2,86.0 1350.0,86.0 1340.1,97.0 1350.0,108.0 1370.2,108.0" fill="#33a02c" stroke="#111" stroke-width="2.2"><title>COLLAGROW67CONSE_02213 | mhpF_1 | Dehydrogenase/oxidoreductase | Acetaldehyde dehydrogenase | PANEL HIT: mhpF (Catechol-meta / Catechol-meta) | pident=83.766000 qcovs=97.000000</title></polygon>
<text x="1355.1" y="121.0" font-family="Arial, Helvetica, sans-serif" font-size="9" font-weight="700" text-anchor="end" transform="rotate(-45 1355.1 121.0)" fill="#111">mhpF_1 (mhpF)</text>
<polygon points="1397.1,86.0 1379.7,86.0 1371.2,97.0 1379.7,108.0 1397.1,108.0" fill="#ff7f00" stroke="#111" stroke-width="2.2"><title>COLLAGROW67CONSE_02214 | mhpD_1 | Hydratase/dehydratase/isomerase | 2-keto-4-pentenoate hydratase | PANEL HIT: mhpD (Catechol-meta / Catechol-meta) | pident=54.545000 qcovs=97.000000</title></polygon>
<text x="1384.1" y="121.0" font-family="Arial, Helvetica, sans-serif" font-size="9" font-weight="700" text-anchor="end" transform="rotate(-45 1384.1 121.0)" fill="#111">mhpD_1 (mhpD)</text>
<polygon points="1425.3,86.0 1406.7,86.0 1397.5,97.0 1406.7,108.0 1425.3,108.0" fill="#b15928" stroke="#111" stroke-width="2.2"><title>COLLAGROW67CONSE_02215 | mhpC | Hydrolase/decarboxylase/lyase | 2-hydroxy-6-oxononadienedioate/2-hydroxy-6-oxononatrienedioate hydrolase | PANEL HIT: bphD (Aromatics / Biphenyl) | pident=54.770000 qcovs=99.000000</title></polygon>
<text x="1411.4" y="121.0" font-family="Arial, Helvetica, sans-serif" font-size="9" font-weight="700" text-anchor="end" transform="rotate(-45 1411.4 121.0)" fill="#111">mhpC (bphD)</text>
<polygon points="1456.5,86.0 1435.9,86.0 1425.8,97.0 1435.9,108.0 1456.5,108.0" fill="#d73027" stroke="#888" stroke-width="0.8"><title>COLLAGROW67CONSE_02216 | mhpB_1 | Oxygenase/dioxygenase | 2,3-dihydroxyphenylpropionate/2,3-dihydroxicinnamic acid 1,2-dioxygenase</title></polygon>
<text x="1441.1" y="121.0" font-family="Arial, Helvetica, sans-serif" font-size="9" font-weight="400" text-anchor="end" transform="rotate(-45 1441.1 121.0)" fill="#555">mhpB_1</text>
<polygon points="1509.8,86.0 1474.1,86.0 1456.5,97.0 1474.1,108.0 1509.8,108.0" fill="#d73027" stroke="#888" stroke-width="0.8"><title>COLLAGROW67CONSE_02217 | mhpA | Oxygenase/dioxygenase | 3-(3-hydroxy-phenyl)propionate/3-hydroxycinnamic acid hydroxylase</title></polygon>
<text x="1483.1" y="121.0" font-family="Arial, Helvetica, sans-serif" font-size="9" font-weight="400" text-anchor="end" transform="rotate(-45 1483.1 121.0)" fill="#555">mhpA</text>
<polygon points="1514.0,86.0 1530.9,86.0 1539.2,97.0 1530.9,108.0 1514.0,108.0" fill="#d9d9d9" stroke="#888" stroke-width="0.8"><title>COLLAGROW67CONSE_02218 | COLLAGROW67CONSE_02218 | Hypothetical/accessory | hypothetical protein</title></polygon>
<text x="1526.6" y="121.0" font-family="Arial, Helvetica, sans-serif" font-size="9" font-weight="400" text-anchor="end" transform="rotate(-45 1526.6 121.0)" fill="#555">COLLAGROW67CONSE_02218</text>
<polygon points="1616.9,86.0 1557.8,86.0 1539.8,97.0 1557.8,108.0 1616.9,108.0" fill="#d9d9d9" stroke="#888" stroke-width="0.8"><title>COLLAGROW67CONSE_02219 | COLLAGROW67CONSE_02219 | Hypothetical/accessory | hypothetical protein</title></polygon>
<text x="1578.3" y="121.0" font-family="Arial, Helvetica, sans-serif" font-size="9" font-weight="400" text-anchor="end" transform="rotate(-45 1578.3 121.0)" fill="#555">COLLAGROW67CONSE_02219</text>
<polygon points="1664.0,86.0 1635.3,86.0 1621.2,97.0 1635.3,108.0 1664.0,108.0" fill="#cab2d6" stroke="#111" stroke-width="2.2"><title>COLLAGROW67CONSE_02220 | nicP_8 | Transport/efflux | Porin-like protein NicP | PANEL HIT: opdK (Transportation / Transportation) | pident=36.199000 qcovs=98.000000</title></polygon>
<text x="1642.6" y="121.0" font-family="Arial, Helvetica, sans-serif" font-size="9" font-weight="700" text-anchor="end" transform="rotate(-45 1642.6 121.0)" fill="#111">nicP_8 (opdK)</text>
<text x="452.0" y="34.0" font-family="Arial, Helvetica, sans-serif" font-size="9" font-weight="400" text-anchor="start" fill="#666">2,389,696 bp</text>
<text x="1664.0" y="34.0" font-family="Arial, Helvetica, sans-serif" font-size="9" font-weight="400" text-anchor="end" fill="#666">2,427,439 bp</text>
<text x="24.0" y="166.0" font-family="Arial, Helvetica, sans-serif" font-size="10" font-weight="700" text-anchor="start" fill="#222">Legend (bold outline = reference-panel seed hit; thin outline = expanded genomic context)</text>
<rect x="24" y="176" width="16" height="12" fill="#d73027" stroke="#555" stroke-width="0.6"/>
<text x="46.0" y="186.0" font-family="Arial, Helvetica, sans-serif" font-size="9" font-weight="400" text-anchor="start" fill="#333">Oxygenase/dioxygenase</text>
<rect x="424" y="176" width="16" height="12" fill="#1f78b4" stroke="#555" stroke-width="0.6"/>
<text x="446.0" y="186.0" font-family="Arial, Helvetica, sans-serif" font-size="9" font-weight="400" text-anchor="start" fill="#333">CoA ligase/synthetase</text>
<rect x="824" y="176" width="16" height="12" fill="#6a3d9a" stroke="#555" stroke-width="0.6"/>
<text x="846.0" y="186.0" font-family="Arial, Helvetica, sans-serif" font-size="9" font-weight="400" text-anchor="start" fill="#333">Carboxylase</text>
<rect x="1224" y="176" width="16" height="12" fill="#33a02c" stroke="#555" stroke-width="0.6"/>
<text x="1246.0" y="186.0" font-family="Arial, Helvetica, sans-serif" font-size="9" font-weight="400" text-anchor="start" fill="#333">Dehydrogenase/oxidoreductase</text>
<rect x="24" y="198" width="16" height="12" fill="#ff7f00" stroke="#555" stroke-width="0.6"/>
<text x="46.0" y="208.0" font-family="Arial, Helvetica, sans-serif" font-size="9" font-weight="400" text-anchor="start" fill="#333">Hydratase/dehydratase/isomerase</text>
<rect x="424" y="198" width="16" height="12" fill="#b15928" stroke="#555" stroke-width="0.6"/>
<text x="446.0" y="208.0" font-family="Arial, Helvetica, sans-serif" font-size="9" font-weight="400" text-anchor="start" fill="#333">Hydrolase/decarboxylase/lyase</text>
<rect x="824" y="198" width="16" height="12" fill="#a6cee3" stroke="#555" stroke-width="0.6"/>
<text x="846.0" y="208.0" font-family="Arial, Helvetica, sans-serif" font-size="9" font-weight="400" text-anchor="start" fill="#333">Thiolase/transferase</text>
<rect x="1224" y="198" width="16" height="12" fill="#cab2d6" stroke="#555" stroke-width="0.6"/>
<text x="1246.0" y="208.0" font-family="Arial, Helvetica, sans-serif" font-size="9" font-weight="400" text-anchor="start" fill="#333">Transport/efflux</text>
<rect x="24" y="220" width="16" height="12" fill="#fdbf6f" stroke="#555" stroke-width="0.6"/>
<text x="46.0" y="230.0" font-family="Arial, Helvetica, sans-serif" font-size="9" font-weight="400" text-anchor="start" fill="#333">Regulator</text>
<rect x="424" y="220" width="16" height="12" fill="#fb9a99" stroke="#555" stroke-width="0.6"/>
<text x="446.0" y="230.0" font-family="Arial, Helvetica, sans-serif" font-size="9" font-weight="400" text-anchor="start" fill="#333">Electron transfer/redox</text>
<rect x="824" y="220" width="16" height="12" fill="#b2df8a" stroke="#555" stroke-width="0.6"/>
<text x="846.0" y="230.0" font-family="Arial, Helvetica, sans-serif" font-size="9" font-weight="400" text-anchor="start" fill="#333">Mobile/stress/accessory</text>
<rect x="1224" y="220" width="16" height="12" fill="#d9d9d9" stroke="#555" stroke-width="0.6"/>
<text x="1246.0" y="230.0" font-family="Arial, Helvetica, sans-serif" font-size="9" font-weight="400" text-anchor="start" fill="#333">Hypothetical/accessory</text>
<rect x="24" y="242" width="16" height="12" fill="#cccccc" stroke="#555" stroke-width="0.6"/>
<text x="46.0" y="252.0" font-family="Arial, Helvetica, sans-serif" font-size="9" font-weight="400" text-anchor="start" fill="#333">Accessory/other</text>
</svg>
